<svg width="360" height="360" viewBox="0 0 360 360" fill="none" xmlns="http://www.w3.org/2000/svg">
<g clip-path="url(#clip0_16780_72713)">
<path d="M235.83 234.49C235.83 234.49 235.11 215.34 213.33 216.89C213.33 216.89 202.11 217.99 184.55 232.62C150.94 260.62 146.11 254.85 132.55 257.56C131.97 257.68 119.38 263.39 119.38 263.39L118.46 266.39C118.46 266.39 146.46 274.04 176.14 256.44C176.14 256.44 188.73 249.21 203.3 234.29C203.31 234.25 227.79 212.57 235.83 234.49Z" fill="url(#paint0_linear_16780_72713)"/>
<path d="M198.3 221.9C198.3 221.9 173.55 202.2 136.76 237.05C96.6601 275.05 55.8701 266.65 55.8701 266.65C55.8701 266.65 100.87 282.97 138.16 255.93C175.45 228.89 169.86 220.96 198.3 221.9Z" fill="url(#paint1_linear_16780_72713)"/>
<path d="M277.56 101.31C277.66 99.2296 277.82 97.1596 277.85 95.0896C278.09 82.4096 276.33 70.0896 271.13 58.4196C264.578 43.2292 252.427 31.146 237.2 24.6796C223.88 18.8196 209.87 17.2796 195.5 18.2396C175.7 19.5696 157.19 25.5196 139.5 34.2396C121.678 43.0943 105.215 54.4527 90.6098 67.9697C75.7791 81.4371 62.8564 96.8662 52.1998 113.83C44.1842 126.499 37.8004 140.131 33.1998 154.4C30.1412 163.817 28.129 173.542 27.1998 183.4C26.1998 195.23 26.8098 206.91 30.1998 218.33C36.5398 239.38 49.9098 254.09 70.3998 262.23C70.5198 262.28 70.6298 262.34 70.7598 262.64C68.9898 262.76 67.2198 262.94 65.4498 263.01C58.89 263.272 52.3197 263.018 45.7998 262.25C45.0848 262.125 44.4037 261.852 43.7998 261.45C30.7092 253.914 20.4171 242.334 14.4698 228.45C10.2866 218.651 7.91489 208.175 7.46976 197.53C6.55976 180.39 9.46976 163.82 14.7798 147.62C21.5932 127.284 31.5982 108.162 44.4198 90.9697C62.3369 66.4243 84.7129 45.4696 110.38 29.1996C126.213 18.9605 143.473 11.119 161.6 5.92965C172.007 2.95207 182.726 1.20349 193.54 0.719639C205.45 0.239639 217.15 1.32965 228.54 5.10965C248.61 11.7996 263.27 24.6596 272.08 43.9696C275.96 52.7592 278.327 62.1413 279.08 71.7197C279.893 81.4214 279.527 91.186 277.99 100.8L277.9 101.3L277.56 101.31Z" fill="#808286"/>
<path d="M68.08 106.2C64.1283 112.518 60.5909 119.085 57.49 125.86C51.3 139.76 47.14 154.19 46.06 169.45C45.18 181.97 46.41 194.21 50.72 206.05C55.5113 219.622 64.4852 231.323 76.35 239.47C86.27 246.36 97.35 250.24 109.23 252.03C109.32 252.55 108.87 252.48 108.63 252.59C102.394 255.475 95.9109 257.794 89.26 259.52C88.5632 259.717 87.8223 259.693 87.14 259.45C68.36 252.79 54.52 240.66 46.23 222.45C40.85 210.62 38.92 198.11 39.23 185.2C39.59 168.27 43.79 152.2 50.4 136.74C54.9444 126.199 60.5499 116.147 67.13 106.74C67.37 106.4 67.63 106.09 67.88 105.74C67.92 105.92 68 106.07 68.08 106.2Z" fill="#0BA454"/>
<path d="M153.2 121.46C152.78 123.84 152.35 126.21 151.95 128.59C151.664 129.87 151.527 131.179 151.54 132.49C151.519 133.02 151.605 133.549 151.794 134.044C151.984 134.539 152.272 134.99 152.642 135.37C153.011 135.75 153.455 136.051 153.945 136.254C154.434 136.457 154.96 136.558 155.49 136.55C156.37 135.14 157.26 133.68 158.19 132.25C158.691 131.496 159.235 130.771 159.82 130.08C160.305 129.444 160.983 128.981 161.753 128.761C162.522 128.541 163.342 128.576 164.09 128.86C165.28 129.23 166.48 129.77 167.85 129.1C167.928 129.629 167.877 130.167 167.703 130.672C167.529 131.177 167.237 131.632 166.85 132C165.255 133.968 163.801 136.046 162.5 138.22C160.75 140.81 158.6 142.87 155.24 143.11C154.249 143.2 153.251 143.063 152.32 142.71C150.64 142.08 149.93 142.26 148.8 143.71C147.93 144.8 147.16 146.01 145.64 146.25C141.58 144.76 137.9 145.66 135.33 148.9C137.96 149.02 140.52 148.74 142.98 149.43C143.023 149.898 142.93 150.367 142.711 150.782C142.493 151.198 142.159 151.541 141.75 151.77C139.88 153.33 137.86 154.77 136.04 156.34C132.58 159.34 129.56 162.82 128.04 167.29C126.19 172.78 129.42 177.29 135.13 177.29C136.167 177.269 137.201 177.162 138.22 176.97C143.39 175.97 147.39 173.07 150.95 169.4C151.26 169.08 151.46 168.49 152.07 168.67C152.11 168.7 152.143 168.737 152.167 168.779C152.191 168.822 152.207 168.869 152.213 168.917C152.218 168.966 152.214 169.015 152.2 169.062C152.186 169.109 152.162 169.153 152.13 169.19C148.93 174.02 145.37 178.5 140.28 181.49C137.506 183.277 134.164 183.962 130.91 183.41C127.03 182.67 124.76 179.67 124.61 175.41C124.573 171.683 125.515 168.011 127.34 164.76C129.722 160.315 133.063 156.455 137.12 153.46C137.839 153.021 138.439 152.414 138.87 151.69C136.68 150.88 134.46 151.5 132.36 151.28C132.291 151.177 132.254 151.055 132.254 150.93C132.254 150.806 132.291 150.684 132.36 150.58C134.72 147.02 137.36 143.8 141.73 142.58C142.902 142.241 144.131 142.149 145.34 142.31C147.59 142.63 148.42 141.96 148.54 139.65C148.634 136.348 148.907 133.053 149.36 129.78C149.85 126.78 151.42 124.16 152.66 121.44L153.2 121.46ZM156.76 136.75C158.291 136.679 159.781 136.228 161.093 135.437C162.406 134.646 163.502 133.541 164.28 132.22C162.39 130.89 160.83 130.92 159.65 132.42C158.65 133.68 157.85 135.09 156.76 136.75Z" fill="#808286"/>
<path d="M175.11 156.89C175.486 157.491 176.037 157.963 176.69 158.24C177.166 158.507 177.569 158.888 177.863 159.348C178.156 159.809 178.33 160.335 178.37 160.88C179.07 166.46 174.15 175.99 169.2 178.55C166.2 180.11 163 180.66 160.05 178.64C156.92 176.49 156.22 173.11 156.62 169.58C157.22 164.38 159.37 159.67 161.75 155.08C162.098 154.102 162.65 153.208 163.37 152.46C163.463 152.843 163.481 153.24 163.421 153.63C163.361 154.019 163.224 154.393 163.02 154.73C161.88 157.58 160.5 160.34 159.53 163.27C159.037 164.635 158.8 166.079 158.83 167.53C158.96 170.53 160.65 172.66 163.6 173.08C165.499 173.428 167.455 173.313 169.3 172.743C171.146 172.174 172.826 171.168 174.2 169.81C175.357 168.751 176.071 167.294 176.2 165.73C175.574 164.958 174.742 164.379 173.8 164.06C172 163.12 171.54 162.29 172.04 160.34C172.548 158.36 173.443 156.5 174.671 154.867C175.9 153.233 177.439 151.858 179.2 150.82C180.05 150.303 180.761 149.585 181.27 148.73C182.386 146.916 183.826 145.322 185.52 144.03C186.306 143.375 187.223 142.897 188.21 142.628C189.197 142.359 190.23 142.305 191.24 142.47C192.93 142.78 193.38 141.47 194.13 140.55C194.56 140.2 194.93 140.74 195.33 140.55C196.15 140.16 196.26 139.28 196.65 138.55L197.71 138.44C198.5 137.86 198.52 136.89 199.23 136.33C199.248 138.105 198.639 139.83 197.51 141.2C195.71 143.41 192.81 144.2 191.1 146.32C187.99 145.6 185.29 145.69 183.27 148.32C183.17 148.96 183.67 149.32 184.02 149.68C185.82 151.68 185.34 153.57 182.71 154.61C178.84 153.41 176.12 154.2 175.11 156.89Z" fill="#808286"/>
<path d="M278.48 158.2C278.652 158.499 278.803 158.81 278.93 159.13C279.65 162.04 280.58 163.13 283.54 163.35C291.15 164.02 298.74 164 306.14 161.73C308.83 160.9 311.23 159.73 312.86 157.22C313.319 156.369 314.078 155.72 314.99 155.398C315.901 155.077 316.899 155.106 317.79 155.48C318.161 155.168 318.459 154.779 318.664 154.34C318.869 153.902 318.977 153.424 318.98 152.94C319.368 150.428 319.432 147.878 319.17 145.35C318.92 142.11 319.99 139.21 321 136.26C321.145 135.483 321.448 134.744 321.89 134.09C322.199 134.669 322.285 135.342 322.13 135.98C321.91 140.69 321.68 145.39 321.37 150.08C321.182 153.033 320.029 155.844 318.09 158.08C317.835 158.451 317.48 158.742 317.065 158.919C316.651 159.096 316.195 159.152 315.75 159.08C313.9 158.82 312.59 159.86 311.52 161.27C310.45 162.68 309.52 164.4 308 165.55C304.73 167.97 300.9 168.87 297 169.55C292.214 170.341 287.342 170.469 282.52 169.93C278.91 169.52 277.59 168.05 277.6 164.44C277.554 162.326 277.851 160.218 278.48 158.2Z" fill="#808286"/>
<path d="M258.42 166.37C257.8 168.197 256.874 169.905 255.68 171.42C252.884 175.561 249.232 179.053 244.97 181.66C242.424 183.108 239.46 183.641 236.57 183.17C232.16 182.53 229.13 178.81 229.02 173.9C228.91 168.99 230.65 164.59 233.02 160.4C234.543 157.614 236.551 155.121 238.95 153.04C239.177 152.82 239.388 152.583 239.58 152.33C239.09 150.49 237.72 150.83 236.14 151.11C236.486 150.236 237.039 149.46 237.751 148.847C238.463 148.234 239.314 147.802 240.23 147.59C240.984 147.327 241.795 147.274 242.577 147.436C243.359 147.598 244.082 147.969 244.67 148.51C245.39 149.16 245.03 149.91 244.73 150.64C244.52 151.16 243.91 151.49 243.93 152.15C244.434 152.195 244.942 152.13 245.418 151.959C245.895 151.788 246.329 151.516 246.69 151.162C247.051 150.807 247.331 150.378 247.511 149.905C247.69 149.432 247.765 148.925 247.73 148.42C247.53 145.25 249.23 142.76 250.3 140.03C250.74 145.11 250.3 149.93 246.46 153.83C244.87 155.45 243.65 155.83 241.46 154.99C241.184 154.846 240.879 154.765 240.567 154.752C240.256 154.74 239.946 154.798 239.66 154.92C235.31 157.02 231.17 165.18 232.08 169.92C232.87 173.99 236.02 176.48 240.72 176.71C245.64 176.94 249.66 174.91 253.24 171.71C254.673 170.326 255.972 168.809 257.12 167.18C257.244 166.941 257.43 166.739 257.658 166.597C257.887 166.454 258.15 166.376 258.42 166.37Z" fill="#808286"/>
<path d="M281.03 231.08V228.67H276.55C276.304 227.553 276.267 226.401 276.44 225.27H285.1V233.27C283.532 234.641 281.638 235.585 279.6 236.01C274.4 237.43 269.36 235.37 267.34 230.86C265.2 226.12 265.99 218.29 272.54 216.04C274.011 215.491 275.582 215.263 277.148 215.372C278.714 215.481 280.239 215.923 281.62 216.67C282.478 217.154 283.217 217.825 283.779 218.633C284.342 219.442 284.715 220.367 284.87 221.34C283.566 221.728 282.226 221.983 280.87 222.1C279.87 219.59 277.94 218.73 275.36 219.04C274.382 219.112 273.447 219.475 272.677 220.083C271.907 220.691 271.337 221.515 271.04 222.45C270.277 224.608 270.277 226.962 271.04 229.12C271.452 230.456 272.369 231.579 273.596 232.249C274.823 232.919 276.263 233.085 277.61 232.71C278.871 232.469 280.049 231.908 281.03 231.08Z" fill="#0BA454"/>
<path d="M100.95 151.3L102.07 151.17C102.97 150.77 102.87 149.69 103.63 149.23C103.823 150.375 103.633 151.551 103.091 152.578C102.549 153.604 101.684 154.424 100.63 154.91C100.372 154.972 100.13 155.088 99.9204 155.25C99.5191 155.741 99.0351 156.157 98.4904 156.48C97.9604 156.72 97.4004 156.88 96.7604 157.1C96.4174 159.59 95.9164 162.055 95.2604 164.48C94.0817 168.823 91.849 172.808 88.7604 176.08C86.6975 178.206 84.0041 179.608 81.0804 180.08C75.7204 180.95 71.5504 177.5 71.4504 172.08C71.3704 167.6 72.8504 163.55 74.8704 159.66C75.1513 158.877 75.614 158.171 76.2204 157.6C76.7604 158.26 76.3004 158.82 76.0604 159.34C74.9275 161.56 74.1577 163.947 73.7804 166.41C73.2904 170.62 75.6004 173.41 79.8304 173.73C83.4169 174.023 86.9745 172.892 89.7344 170.583C92.4944 168.274 94.235 164.972 94.5804 161.39C94.8104 159.31 94.7604 157.23 94.8104 155.15C94.8104 153.72 95.6104 152.9 96.9404 153.15C97.7194 153.383 98.5565 153.323 99.2947 152.983C100.033 152.642 100.622 152.044 100.95 151.3Z" fill="#808286"/>
<path d="M269.82 153.98C269.109 154.601 268.505 155.334 268.03 156.15C267.852 156.496 267.563 156.773 267.21 156.938C266.858 157.103 266.46 157.146 266.08 157.06C265.568 156.946 265.034 156.979 264.54 157.156C264.046 157.333 263.613 157.646 263.29 158.06C262.521 158.894 261.85 159.813 261.29 160.8C260.34 162.26 259.15 163.49 257.29 163.29C255.43 163.09 254.15 161.67 253.52 159.83C252.71 157.47 253.11 155.07 253.31 152.7C253.614 149.007 254.128 145.335 254.85 141.7C255.343 139.606 256.116 137.587 257.15 135.7C257.3 137.35 257.222 139.012 256.92 140.64C256.57 144.01 256.16 147.38 255.75 150.74C255.597 151.909 255.662 153.095 255.94 154.24C256.074 154.935 256.399 155.579 256.88 156.099C257.361 156.618 257.977 156.993 258.66 157.18C259.361 157.4 260.111 157.415 260.82 157.221C261.529 157.028 262.168 156.636 262.66 156.09C262.725 156.028 262.786 155.961 262.84 155.89C264.17 154.21 265.35 152.23 267.84 153.42C269.4 152.74 269.68 151.14 270.84 150.42C271.55 150.42 272.18 150.89 273.08 150.5L275.99 146.5C276.765 145.322 277.76 144.303 278.92 143.5C279.224 143.257 279.59 143.104 279.976 143.058C280.362 143.012 280.754 143.076 281.106 143.242C281.458 143.407 281.756 143.668 281.968 143.995C282.179 144.322 282.294 144.701 282.3 145.09C282.76 149.75 277.69 155.28 273.03 155.27C272.435 155.292 271.841 155.188 271.288 154.966C270.735 154.744 270.235 154.408 269.82 153.98ZM274.37 151.59C277.53 151.48 280.14 149.92 280.59 147.95C278.7 145.86 276.48 147.89 274.37 151.59Z" fill="#808286"/>
<path d="M248.2 228.32V235.91C246.848 236.075 245.482 236.075 244.13 235.91V215.82C247.93 215.94 251.68 215.52 255.39 216.16C256.107 216.288 256.783 216.587 257.361 217.031C257.938 217.474 258.401 218.05 258.71 218.71C260.62 222.47 259.26 228.16 253.44 228.32C251.78 228.36 250.1 228.32 248.2 228.32ZM248.2 224.88C249.762 225.071 251.343 225.051 252.9 224.82C253.539 224.777 254.137 224.495 254.577 224.03C255.016 223.564 255.264 222.95 255.27 222.31C255.369 221.671 255.216 221.018 254.843 220.49C254.47 219.962 253.906 219.6 253.27 219.48C251.587 219.204 249.876 219.154 248.18 219.33L248.2 224.88Z" fill="#0BA454"/>
<path d="M344.8 221.33C343.502 221.777 342.162 222.088 340.8 222.26C340.594 221.493 340.186 220.795 339.617 220.239C339.049 219.683 338.342 219.29 337.57 219.1C336.391 218.803 335.142 218.978 334.09 219.589C333.038 220.2 332.266 221.198 331.94 222.37C331.216 224.82 331.276 227.436 332.11 229.85C332.4 230.74 332.97 231.512 333.733 232.053C334.497 232.593 335.415 232.873 336.35 232.85C337.261 232.868 338.152 232.591 338.893 232.061C339.633 231.532 340.183 230.777 340.46 229.91C340.62 229.5 340.8 229.09 341 228.61L344.74 229.75C344.495 231.384 343.731 232.895 342.56 234.06C341.39 235.226 339.875 235.983 338.24 236.22C331.95 237.05 327.49 233.22 327.3 226.87C327.19 223.36 327.72 220.09 330.55 217.63C332.276 216.177 334.466 215.391 336.721 215.417C338.977 215.442 341.149 216.278 342.84 217.77C343.82 218.746 344.5 219.981 344.8 221.33Z" fill="#0BA454"/>
<path d="M297.2 228.51V235.91C295.852 236.062 294.493 236.096 293.14 236.01V216.01C293.78 215.777 294.47 215.719 295.14 215.84C297.988 215.738 300.839 215.801 303.68 216.03C306.63 216.42 308.39 218.58 308.49 221.8C308.59 225.02 306.81 227.52 303.93 228.12C301.77 228.58 299.54 228.25 297.2 228.51ZM297.2 224.96C298.831 225.071 300.47 225.014 302.09 224.79C302.699 224.693 303.252 224.378 303.646 223.903C304.039 223.428 304.247 222.826 304.23 222.21C304.311 221.597 304.159 220.975 303.803 220.469C303.448 219.963 302.914 219.61 302.31 219.48C300.63 219.27 298.92 219.3 297.2 219.22V224.96Z" fill="#0BA454"/>
<path d="M120.94 160.77C120.909 160.566 120.829 160.373 120.705 160.209C120.58 160.045 120.417 159.914 120.23 159.83C119.66 159.68 119.23 160.04 118.71 160.23C118.346 160.368 117.95 160.397 117.57 160.314C117.189 160.23 116.842 160.038 116.57 159.76C116.313 159.532 116.141 159.225 116.081 158.887C116.021 158.549 116.077 158.201 116.24 157.9C116.733 156.393 117.433 154.963 118.32 153.65C119.24 152.39 120.19 152.27 121.46 153.18C122.137 153.644 122.675 154.284 123.017 155.031C123.359 155.778 123.491 156.603 123.4 157.42C123.157 161.247 121.628 164.881 119.06 167.73C118.289 168.625 117.28 169.284 116.15 169.63C112.76 170.63 110.09 168.56 109.76 164.63C109.648 161.917 109.812 159.199 110.25 156.52C110.78 152.22 111.13 147.87 112.95 143.84C113.137 143.148 113.506 142.519 114.02 142.02C114.02 144.64 113.54 146.93 113.31 149.23C112.96 152.74 112.26 156.23 112.38 159.76C112.343 160.679 112.663 161.577 113.272 162.266C113.881 162.955 114.733 163.383 115.65 163.46C118.32 163.79 120.27 162.79 120.94 160.77Z" fill="#808286"/>
<path d="M342.07 146.58C342.72 146.03 342.82 145.12 343.64 144.83C344.19 146.73 342.36 149.83 340.58 150.09C339.853 150.235 339.17 150.547 338.584 150.999C337.998 151.452 337.524 152.034 337.2 152.7C336.36 154.05 335.5 155.38 334.65 156.7C334.312 157.293 333.809 157.775 333.201 158.086C332.593 158.397 331.908 158.524 331.23 158.45C327.4 158.2 324.53 160 322.23 162.83C319.55 166.13 317.38 169.83 314.23 172.83C311.752 175.364 308.812 177.4 305.57 178.83C305.1 179.053 304.57 179.12 304.06 179.02C304.593 178.123 305.356 177.385 306.27 176.88C310.846 173.764 314.708 169.711 317.6 164.99C319.388 161.943 321.559 159.137 324.06 156.64C326.97 153.95 330.18 151.99 334.36 152.31C334.7 152.321 335.037 152.245 335.34 152.09C335.643 151.934 335.901 151.703 336.09 151.42C336.61 150.73 337.09 150.03 337.64 149.36C339.37 147.13 339.37 147.13 342.07 146.58Z" fill="#808286"/>
<path d="M230.66 140.01C230.808 140.349 230.866 140.719 230.829 141.087C230.792 141.455 230.662 141.807 230.45 142.11C229.229 144.843 227.506 147.323 225.37 149.42C224.9 149.884 224.328 150.233 223.7 150.438C223.071 150.643 222.404 150.698 221.75 150.6C217.66 150.2 214.57 151.98 212.09 155.04C209.31 158.49 207.03 162.33 203.73 165.37C201.366 167.686 198.592 169.545 195.55 170.85C195.086 171.133 194.529 171.223 194 171.1C194.621 170.1 195.489 169.277 196.52 168.71C200.544 165.991 203.982 162.492 206.63 158.42C208.49 155.367 210.604 152.477 212.95 149.78C216.47 146.06 220.53 143.63 225.95 144.33C226.421 144.407 226.905 144.334 227.333 144.12C227.76 143.906 228.109 143.563 228.33 143.14C228.95 141.988 229.735 140.934 230.66 140.01Z" fill="#808286"/>
<path d="M352.9 104.7C352.957 105.471 352.713 106.234 352.22 106.83C350.1 110.83 346.96 113.91 343.68 116.91C337.16 122.86 330 128.01 323.09 133.48C322.83 133.657 322.56 133.817 322.28 133.96C322.698 132.323 323.519 130.817 324.67 129.58C326.726 127.483 328.947 125.554 331.31 123.81C338.666 118.094 345.644 111.908 352.2 105.29C352.426 105.081 352.67 104.894 352.93 104.73L352.9 104.7Z" fill="#808286"/>
<path d="M319.91 235.95H316.01V215.95H319.91V235.95Z" fill="#0BA454"/>
<path d="M195.1 161.83C197.69 158.7 202.36 157.83 203.72 153.35C203.47 153.35 203.32 153.24 203.22 153.28C202.705 153.527 202.123 153.599 201.564 153.486C201.004 153.372 200.497 153.078 200.12 152.65C199.19 151.65 199.8 150.65 200.17 149.65C200.652 148.381 201.269 147.167 202.01 146.03C202.52 145.26 203.07 144.49 204.14 144.62C204.659 144.688 205.149 144.903 205.551 145.24C205.953 145.576 206.251 146.02 206.41 146.52C206.708 147.331 206.801 148.204 206.68 149.06C206.349 152.495 205.148 155.789 203.19 158.63C202.963 159.029 202.649 159.371 202.27 159.63C199.986 160.674 197.576 161.413 195.1 161.83Z" fill="#808286"/>
<path d="M340.43 141.39C339.12 140.95 338.58 139.66 337.36 139.17C336.49 140.22 336.09 141.67 334.69 142.42C333.408 141.847 332.266 141.005 331.34 139.95C332.071 138.106 333.05 136.37 334.25 134.79C335.83 134.94 336.55 136.21 337.58 137.06C338.52 136.06 338.94 134.69 339.93 133.79C341.38 133.94 342.93 135.11 343.07 136.39C343.31 138.62 341.86 140.02 340.43 141.39Z" fill="#808286"/>
<path d="M136.04 200.44C133.24 202.57 129.91 202.81 127.62 201.12C125.62 199.65 124.86 196.47 125.86 193.84C126.86 191.21 128.86 190.12 131.78 190.35C134.09 190.53 135.35 191.57 135.78 193.66C135.465 193.9 135.075 194.02 134.68 194C133.01 191.59 130.68 190.92 128.78 192.29C126.88 193.66 126.42 197.29 127.88 199.29C129.34 201.29 132.12 201.39 134.46 199.65C134.603 198.991 134.603 198.309 134.46 197.65C133.46 197.28 132.37 197.7 131.37 197.41C131.08 197.02 131.21 196.63 131.27 196.15H136.04V200.44Z" fill="#0BA454"/>
<path d="M187.93 129.66C188.671 127.858 189.628 126.152 190.78 124.58C192.21 124.75 192.83 125.99 193.78 126.77C194.73 125.77 195.07 124.46 196.02 123.57C198.42 124.07 199.54 126.06 198.59 128.18C198.172 129.251 197.482 130.196 196.59 130.92C196.28 130.92 195.976 130.839 195.707 130.685C195.439 130.53 195.215 130.308 195.06 130.04C194.696 129.537 194.362 129.013 194.06 128.47C192.8 129.89 192.55 131.47 191.13 132.09C189.952 131.438 188.874 130.619 187.93 129.66Z" fill="#808286"/>
<path d="M215.97 136.74C214.851 136.106 213.838 135.299 212.97 134.35C213.684 132.535 214.624 130.818 215.77 129.24C217.19 129.55 217.77 130.81 218.77 131.47C219.69 130.47 219.99 129.19 220.96 128.37C221.641 128.51 222.272 128.834 222.783 129.306C223.294 129.779 223.666 130.382 223.86 131.05C224.14 132.47 222.86 134.66 221.22 135.63C220.22 135.27 219.71 134.12 218.6 133.63C218.03 133.99 217.94 134.75 217.5 135.24C217.06 135.73 216.79 136.46 215.97 136.74Z" fill="#808286"/>
<path d="M248.9 157.96C250.34 158.63 251.57 159.6 251.64 161.11C251.73 162.9 250.52 164.25 249.23 165.39C247.86 165.21 247.43 163.83 246.3 163.39C245.39 164.39 245.18 166.01 243.62 166.48C242.587 165.848 241.648 165.074 240.83 164.18C241.418 162.332 242.333 160.605 243.53 159.08C245 159.26 245.48 160.6 246.53 161.25C247.46 160.31 247.75 158.93 248.9 157.96Z" fill="#808286"/>
<path d="M188.66 163.2C190.1 163.84 191.29 164.78 191.4 166.32C191.53 168.23 190.2 169.5 188.94 170.69C187.7 170.28 187.2 169.15 186.12 168.69C185.22 169.59 184.93 171.02 183.58 171.76C182.484 171.174 181.489 170.418 180.63 169.52C181.126 167.567 182.114 165.774 183.5 164.31C184.16 164.31 184.5 164.83 184.94 165.22C185.38 165.61 185.76 166.06 186.22 166.54C187.2 165.56 187.52 164.2 188.66 163.2Z" fill="#808286"/>
<path d="M291.27 154.8C290.251 154.115 289.297 153.339 288.42 152.48C289.071 150.654 289.984 148.933 291.13 147.37C292.61 147.55 293.13 148.85 294.19 149.59C294.9 148.52 295.6 147.44 296.29 146.39C297.021 146.558 297.69 146.929 298.22 147.459C298.751 147.99 299.122 148.659 299.29 149.39C299.46 150.62 298.05 152.89 296.61 153.67C296.02 153.62 295.72 153.11 295.3 152.79C294.88 152.47 294.49 152.08 294.04 151.68C293.03 152.61 292.83 154.26 291.27 154.8Z" fill="#808286"/>
<path d="M142.43 157.77C143.109 155.984 144.034 154.301 145.18 152.77C146.61 153.03 147.18 154.26 148.18 155.03C149.08 154.03 149.45 152.74 150.38 151.86C151.091 152 151.75 152.336 152.28 152.831C152.81 153.326 153.191 153.96 153.38 154.66C153.62 155.91 152.29 158.19 150.78 159.1C150.14 159.1 149.78 158.5 149.37 158.1C148.96 157.7 148.56 157.42 148.08 157.01C147.17 158.01 146.88 159.54 145.45 160.18C144.314 159.554 143.293 158.739 142.43 157.77Z" fill="#808286"/>
<path d="M217.37 160.42C218.72 160.92 219.37 161.93 220.28 162.74L222.38 159.41C223.058 159.559 223.678 159.901 224.166 160.394C224.654 160.887 224.989 161.511 225.13 162.19C225.51 164.19 224.13 165.61 222.97 167.03C221.62 166.78 221.23 165.44 220.09 165.03C219.19 165.92 219.02 167.48 217.61 168.08C216.472 167.449 215.456 166.62 214.61 165.63C215.369 163.813 216.293 162.069 217.37 160.42Z" fill="#808286"/>
<path d="M108.09 153.64C108.307 153.815 108.457 154.059 108.517 154.332C108.577 154.604 108.543 154.889 108.42 155.14C107.633 158.721 106.421 162.196 104.81 165.49C104.48 166.213 104.003 166.858 103.409 167.386C102.815 167.913 102.117 168.309 101.36 168.55C99.7766 169.106 98.1417 169.501 96.4796 169.73C96.1696 169.73 95.8596 169.86 95.5996 169.56C95.5396 168.77 96.1896 168.49 96.6796 168.15C98.0396 167.15 99.4496 166.28 100.84 165.34C103.93 163.27 105.02 159.89 106.45 156.73C106.91 155.69 107.11 154.49 108.09 153.64Z" fill="#808286"/>
<path d="M159.32 197.35V201.85C158.837 202.056 158.299 202.098 157.79 201.97V190.59C159.79 190.59 161.79 190.51 163.79 190.59C164.474 190.638 165.119 190.924 165.612 191.4C166.106 191.875 166.417 192.509 166.49 193.19C166.657 193.972 166.539 194.787 166.158 195.49C165.777 196.192 165.157 196.735 164.41 197.02C163.436 197.3 162.42 197.402 161.41 197.32C160.79 197.36 160.12 197.35 159.32 197.35ZM159.32 195.88C160.652 195.959 161.988 195.959 163.32 195.88C164.39 195.76 164.87 194.93 164.84 193.82C164.882 193.383 164.748 192.947 164.469 192.607C164.19 192.268 163.787 192.053 163.35 192.01C162.03 191.88 160.68 192.01 159.29 192.01L159.32 195.88Z" fill="#0BA454"/>
<path d="M334.2 193.6C333.84 193.97 333.36 193.81 332.86 194C332.645 193.219 332.147 192.546 331.463 192.113C330.778 191.68 329.957 191.519 329.16 191.66C328.481 191.729 327.84 192.004 327.323 192.45C326.806 192.895 326.438 193.489 326.27 194.15C325.73 196.28 325.63 198.41 327.35 200.15C327.89 200.608 328.558 200.888 329.263 200.953C329.968 201.017 330.676 200.862 331.29 200.51C332.29 200.03 332.56 199.05 333.02 198.2C333.466 198.105 333.933 198.187 334.32 198.43C334.26 199.357 333.878 200.235 333.242 200.912C332.605 201.589 331.752 202.023 330.83 202.14C328.37 202.63 326.2 201.78 325.21 199.88C324.718 198.932 324.425 197.895 324.348 196.831C324.27 195.767 324.411 194.698 324.76 193.69C325.143 192.638 325.861 191.742 326.805 191.14C327.749 190.538 328.865 190.264 329.98 190.36C330.952 190.318 331.907 190.62 332.679 191.212C333.451 191.804 333.989 192.65 334.2 193.6Z" fill="#0BA454"/>
<path d="M73.8101 197.41V201.72C73.3001 202.17 72.8101 201.98 72.3301 201.96V190.51C74.5101 190.59 76.7001 190.28 78.8701 190.73C79.548 190.937 80.1353 191.369 80.5351 191.954C80.935 192.539 81.1237 193.243 81.0701 193.95C81.0671 194.676 80.8242 195.38 80.3793 195.954C79.9343 196.527 79.3123 196.937 78.6101 197.12C77.1001 197.5 75.5501 197.2 73.8101 197.41ZM73.8101 195.95C75.2208 196.101 76.646 196.044 78.0401 195.78C78.4852 195.675 78.8739 195.405 79.1281 195.024C79.3823 194.644 79.483 194.182 79.4101 193.73C79.4185 193.271 79.2479 192.826 78.9343 192.49C78.6208 192.154 78.189 191.953 77.7301 191.93C76.4283 191.77 75.1119 191.77 73.8101 191.93V195.95Z" fill="#0BA454"/>
<path d="M217.05 201.98V194.39C217.167 194.32 217.297 194.275 217.432 194.257C217.568 194.24 217.705 194.25 217.836 194.287C217.967 194.325 218.089 194.389 218.195 194.475C218.3 194.561 218.387 194.669 218.45 194.79C220.45 193.72 221.13 193.79 222.81 195.12C223.16 194.88 223.51 194.59 223.89 194.38C224.233 194.156 224.629 194.026 225.038 194.002C225.447 193.978 225.855 194.061 226.223 194.243C226.59 194.424 226.904 194.698 227.133 195.038C227.362 195.378 227.499 195.771 227.53 196.18C227.65 197.67 227.58 199.18 227.59 200.66C227.59 201.06 227.59 201.47 227.53 201.82C227.372 201.934 227.189 202.01 226.996 202.042C226.803 202.073 226.606 202.058 226.42 202C226.347 201.891 226.296 201.768 226.27 201.64C226.27 200.1 226.27 198.56 226.27 197.02C226.27 196.09 225.98 195.35 224.98 195.29C224.742 195.243 224.497 195.251 224.262 195.312C224.027 195.373 223.809 195.486 223.624 195.642C223.439 195.798 223.291 195.994 223.192 196.216C223.092 196.437 223.044 196.677 223.05 196.92C222.98 198.55 223.05 200.18 223.05 201.74C222.884 201.891 222.679 201.993 222.459 202.036C222.238 202.078 222.01 202.059 221.8 201.98C221.741 201.874 221.7 201.759 221.68 201.64C221.68 200.1 221.68 198.56 221.61 197.02C221.61 196.17 221.51 195.32 220.37 195.29C220.143 195.254 219.912 195.267 219.69 195.327C219.469 195.388 219.263 195.494 219.085 195.639C218.908 195.785 218.763 195.966 218.661 196.171C218.558 196.376 218.5 196.601 218.49 196.83C218.36 198.27 218.4 199.73 218.36 201.17C218.352 201.388 218.328 201.605 218.29 201.82C217.86 202.2 217.47 202.01 217.05 201.98Z" fill="#0BA454"/>
<path d="M274.99 191.4V202.07C273.847 201.896 272.682 201.93 271.55 202.17C271.002 202.227 270.449 202.115 269.967 201.848C269.484 201.582 269.095 201.174 268.85 200.68C268.366 199.881 268.118 198.96 268.136 198.026C268.153 197.091 268.436 196.181 268.95 195.4C269.84 193.96 271.31 193.74 273.53 194.7C273.53 194.14 273.59 193.62 273.6 193.11C273.61 192.6 273.6 192.03 273.6 191.55C274.02 191.2 274.42 191.28 274.99 191.4ZM273.76 198.11C273.705 197.579 273.605 197.054 273.46 196.54C273.346 196.171 273.12 195.846 272.814 195.61C272.508 195.374 272.137 195.238 271.75 195.22C271.365 195.173 270.975 195.256 270.642 195.455C270.309 195.654 270.052 195.959 269.91 196.32C269.654 196.899 269.526 197.527 269.534 198.161C269.543 198.794 269.688 199.418 269.96 199.99C270.108 200.348 270.369 200.649 270.703 200.845C271.036 201.042 271.425 201.125 271.81 201.08C272.222 201.06 272.615 200.904 272.928 200.636C273.241 200.368 273.457 200.004 273.54 199.6C273.65 199.12 273.69 198.63 273.76 198.11Z" fill="#0BA454"/>
<path d="M106.62 196.57C106.441 196.619 106.254 196.628 106.071 196.597C105.887 196.566 105.713 196.495 105.56 196.39C105.81 194.84 106.68 194.18 108.64 194.06C111.07 193.91 111.93 194.73 111.96 197.16C111.878 198.738 111.962 200.32 112.21 201.88C112.065 201.971 111.901 202.029 111.731 202.049C111.561 202.069 111.388 202.051 111.226 201.997C111.063 201.942 110.915 201.853 110.791 201.734C110.667 201.615 110.571 201.47 110.51 201.31C109.64 201.94 108.583 202.257 107.51 202.21C106.927 202.224 106.362 202.013 105.931 201.619C105.501 201.226 105.239 200.682 105.2 200.1C105.194 199.505 105.408 198.928 105.801 198.481C106.194 198.035 106.739 197.749 107.33 197.68C108.42 197.561 109.498 197.347 110.55 197.04C110.68 196.24 110.55 195.63 109.67 195.34C109.103 195.1 108.463 195.095 107.891 195.325C107.32 195.556 106.863 196.003 106.62 196.57ZM106.82 200.65C107.241 200.972 107.756 201.147 108.285 201.147C108.815 201.147 109.33 200.972 109.75 200.65C110.116 200.389 110.383 200.012 110.508 199.58C110.634 199.148 110.61 198.687 110.44 198.27C106.53 198.91 106.47 199 106.82 200.65Z" fill="#0BA454"/>
<path d="M201.66 191.42V194.54C201.87 194.59 201.97 194.66 202.03 194.63C205.25 193.33 206.63 194.26 206.64 197.74C206.64 199.1 206.64 200.45 206.64 201.74C206.26 202.11 205.86 202 205.4 201.97C205 199.9 205.56 197.8 205.03 195.84C203.2 194.67 201.84 195.28 201.69 197.35C201.59 198.83 201.69 200.35 201.69 201.73C201.485 201.881 201.242 201.97 200.988 201.986C200.734 202.002 200.481 201.944 200.26 201.82V191.58C200.67 191.14 201.06 191.28 201.66 191.42Z" fill="#0BA454"/>
<path d="M246.9 201.89C246.758 201.972 246.602 202.023 246.439 202.04C246.277 202.057 246.113 202.04 245.957 201.991C245.802 201.941 245.659 201.859 245.537 201.75C245.415 201.642 245.317 201.509 245.25 201.36C244.22 202.052 242.963 202.32 241.74 202.11C241.259 202.056 240.812 201.835 240.476 201.486C240.14 201.138 239.936 200.683 239.9 200.2C239.808 199.703 239.907 199.19 240.178 198.763C240.449 198.336 240.871 198.028 241.36 197.9C242.6 197.53 243.9 197.34 245.19 197.06C245.266 196.894 245.305 196.712 245.303 196.529C245.302 196.346 245.261 196.166 245.183 196C245.105 195.834 244.992 195.688 244.852 195.57C244.711 195.453 244.547 195.368 244.37 195.32C243.2 194.85 242.19 195.24 241.31 196.51C241.133 196.567 240.946 196.582 240.763 196.556C240.579 196.531 240.404 196.463 240.25 196.36C240.225 196.241 240.225 196.119 240.25 196C240.86 194.42 242.59 193.69 244.67 194.11C246.25 194.42 246.67 195.06 246.67 197.11C246.67 197.93 246.67 198.74 246.67 199.55C246.67 200.36 246.82 201.06 246.9 201.89ZM245.2 198.26C244.2 198.44 243.35 198.59 242.47 198.77C242.172 198.783 241.891 198.913 241.689 199.133C241.486 199.352 241.379 199.642 241.39 199.94C241.39 200.72 241.95 201.01 242.64 201.1C243.019 201.183 243.414 201.165 243.784 201.046C244.153 200.927 244.485 200.713 244.745 200.424C245.005 200.136 245.184 199.784 245.264 199.403C245.344 199.023 245.322 198.629 245.2 198.26Z" fill="#0BA454"/>
<path d="M88.0797 198.48H82.5697C82.4344 198.977 82.4962 199.507 82.7421 199.96C82.988 200.413 83.3991 200.753 83.8897 200.91C84.1552 201.03 84.4428 201.093 84.7341 201.094C85.0254 201.096 85.3137 201.037 85.5805 200.92C85.8473 200.803 86.0866 200.631 86.2828 200.416C86.479 200.201 86.6279 199.947 86.7197 199.67C86.9307 199.58 87.1616 199.546 87.3896 199.573C87.6176 199.599 87.8348 199.684 88.0197 199.82C87.9766 200.147 87.8653 200.461 87.693 200.741C87.5207 201.022 87.2913 201.264 87.0197 201.45C86.3384 201.942 85.5197 202.206 84.6797 202.206C83.8397 202.206 83.021 201.942 82.3397 201.45C81.0197 200.45 80.5697 197.68 81.4297 195.94C81.8077 195.212 82.4236 194.635 83.1751 194.306C83.9265 193.976 84.7681 193.914 85.5597 194.13C87.3097 194.64 88.1997 196.11 88.0797 198.48ZM86.5297 197.31C86.5297 195.92 85.8297 195.18 84.6297 195.19C84.3509 195.168 84.0708 195.209 83.8098 195.309C83.5489 195.41 83.3138 195.568 83.1219 195.771C82.93 195.974 82.7862 196.218 82.701 196.485C82.6158 196.751 82.5914 197.033 82.6297 197.31H86.5297Z" fill="#0BA454"/>
<path d="M312 198.52H306.49C306.384 199.033 306.475 199.567 306.746 200.016C307.017 200.464 307.447 200.794 307.95 200.94C308.21 201.052 308.49 201.107 308.773 201.103C309.056 201.098 309.335 201.034 309.591 200.914C309.847 200.794 310.075 200.621 310.259 200.407C310.443 200.192 310.58 199.941 310.66 199.67C310.87 199.553 311.112 199.507 311.35 199.54C311.588 199.572 311.809 199.681 311.98 199.85C311.835 200.313 311.594 200.74 311.273 201.105C310.952 201.469 310.559 201.762 310.118 201.964C309.677 202.167 309.198 202.275 308.713 202.281C308.227 202.287 307.746 202.191 307.3 202C305.45 201.41 304.54 199.25 305.11 196.77C305.334 195.884 305.883 195.116 306.649 194.619C307.415 194.122 308.341 193.933 309.24 194.09C309.714 194.196 310.163 194.395 310.559 194.676C310.955 194.957 311.292 195.314 311.549 195.726C311.805 196.139 311.978 196.598 312.055 197.078C312.133 197.557 312.114 198.047 312 198.52ZM306.48 197.35C307.854 197.433 309.232 197.4 310.6 197.25C310.38 195.82 309.68 195.08 308.6 195.18C308.315 195.172 308.032 195.224 307.769 195.331C307.505 195.438 307.266 195.599 307.067 195.802C306.868 196.006 306.713 196.249 306.612 196.515C306.511 196.781 306.466 197.065 306.48 197.35Z" fill="#0BA454"/>
<path d="M215.27 198.48H209.89C209.798 198.706 209.752 198.949 209.756 199.194C209.76 199.439 209.814 199.68 209.914 199.904C210.014 200.127 210.158 200.328 210.338 200.494C210.518 200.66 210.73 200.788 210.96 200.87C212.07 201.42 213.05 200.98 214.1 199.55C214.295 199.508 214.497 199.513 214.69 199.563C214.882 199.614 215.061 199.708 215.21 199.84C214.77 202.07 212.32 202.55 210.54 202C208.76 201.45 207.76 199.18 208.39 196.63C208.632 195.773 209.187 195.038 209.944 194.57C210.701 194.101 211.606 193.934 212.48 194.1C214.42 194.45 215.5 196.09 215.27 198.48ZM213.86 197.32C213.61 195.76 212.86 195.09 211.66 195.19C211.4 195.201 211.145 195.267 210.912 195.383C210.679 195.499 210.473 195.662 210.307 195.863C210.141 196.064 210.019 196.297 209.949 196.548C209.879 196.799 209.862 197.062 209.9 197.32H213.86Z" fill="#0BA454"/>
<path d="M173.54 199.86C173.369 200.33 173.103 200.759 172.76 201.121C172.416 201.483 172.001 201.77 171.542 201.965C171.082 202.16 170.587 202.259 170.088 202.255C169.589 202.25 169.096 202.143 168.64 201.94C166.91 201.28 166.01 198.94 166.64 196.73C166.748 196.279 166.946 195.855 167.22 195.48C167.494 195.106 167.839 194.79 168.236 194.55C168.634 194.31 169.074 194.151 169.533 194.082C169.992 194.014 170.46 194.037 170.91 194.15C172.61 194.52 173.91 195.92 173.46 198.5H167.94C167.862 199.013 167.967 199.537 168.235 199.981C168.504 200.425 168.919 200.761 169.41 200.93C169.683 201.037 169.975 201.087 170.268 201.077C170.561 201.068 170.849 201 171.115 200.877C171.381 200.753 171.62 200.578 171.817 200.36C172.013 200.143 172.164 199.888 172.26 199.61C172.477 199.541 172.708 199.527 172.932 199.571C173.156 199.614 173.365 199.714 173.54 199.86ZM172.1 197.31C171.96 195.89 171.28 195.2 170.1 195.2C168.92 195.2 168.22 195.86 168.1 197.3C169.43 197.425 170.769 197.429 172.1 197.31Z" fill="#0BA454"/>
<path d="M94.2695 199.85C94.4369 199.701 94.6404 199.598 94.8598 199.553C95.0791 199.507 95.3066 199.52 95.5195 199.59C95.5821 199.852 95.6971 200.099 95.8576 200.316C96.018 200.532 96.2207 200.714 96.4532 200.851C96.6858 200.987 96.9436 201.075 97.211 201.109C97.4785 201.143 97.7501 201.123 98.0095 201.05C98.7995 200.93 99.3895 200.59 99.2895 199.66C99.0095 199.07 98.4495 198.98 97.9395 198.82C97.4295 198.66 97.0595 198.6 96.6295 198.47C94.9495 197.95 94.2895 197.19 94.4895 196C94.6895 194.81 95.9195 194 97.4895 194.06C99.2295 194.14 99.7995 194.54 100.32 196.06C100.09 196.52 99.6495 196.38 99.3195 196.42C98.0195 194.84 96.6695 194.79 95.8495 196.3C96.0195 196.91 96.5395 197.04 97.0695 197.18C97.8593 197.371 98.6373 197.608 99.3995 197.89C99.7119 197.992 99.9944 198.169 100.222 198.406C100.449 198.644 100.615 198.933 100.704 199.249C100.793 199.566 100.803 199.899 100.732 200.22C100.661 200.541 100.513 200.84 100.3 201.09C99.2995 202.33 98.0095 202.39 96.6195 202.16C96.0239 202.098 95.4669 201.836 95.0399 201.416C94.6129 200.997 94.3412 200.444 94.2695 199.85Z" fill="#0BA454"/>
<path d="M289.89 196.38C288.68 194.81 287.25 194.77 286.43 196.2C286.58 196.83 287.1 196.97 287.63 197.12C288.37 197.33 289.11 197.55 289.83 197.8C290.232 197.887 290.595 198.102 290.865 198.412C291.135 198.722 291.298 199.11 291.33 199.52C291.369 199.951 291.285 200.384 291.086 200.769C290.888 201.153 290.584 201.473 290.21 201.69C289.764 201.999 289.251 202.196 288.714 202.266C288.177 202.335 287.63 202.275 287.121 202.09C286.612 201.905 286.154 201.6 285.787 201.202C285.42 200.804 285.153 200.323 285.01 199.8C285.29 199.52 285.65 199.56 286.09 199.58C286.7 201.14 287.91 201.4 289.36 200.81C289.96 200.56 290.01 200.01 289.81 199.42C288.91 198.7 287.81 198.69 286.81 198.33C286.318 198.229 285.878 197.956 285.568 197.56C285.259 197.165 285.1 196.672 285.12 196.17C285.152 195.667 285.359 195.191 285.707 194.826C286.054 194.46 286.519 194.228 287.02 194.17C288.96 193.68 290.57 194.44 290.96 196.08C290.68 196.44 290.3 196.32 289.89 196.38Z" fill="#0BA454"/>
<path d="M336.89 127.28C339.5 127.72 340.71 129.87 339.74 132.09C339.32 133.262 338.591 134.299 337.63 135.09C336.428 134.308 335.282 133.442 334.2 132.5C334.88 130.657 335.783 128.904 336.89 127.28Z" fill="#808286"/>
<path d="M191.26 198.14C191.26 200.7 189.89 202.21 187.57 202.21C185.25 202.21 183.9 200.61 183.92 198.08C183.94 195.55 185.36 194.08 187.56 194.08C189.76 194.08 191.26 195.61 191.26 198.14ZM189.88 198.24C189.88 196.24 188.88 195.02 187.3 195.24C186.04 195.4 185.3 196.51 185.3 198.24C185.3 199.97 186.06 200.98 187.3 201.12C188.85 201.2 189.85 200.1 189.88 198.2V198.24Z" fill="#0BA454"/>
<path d="M266.64 201.89C266.442 201.999 266.22 202.056 265.995 202.056C265.769 202.056 265.548 201.999 265.35 201.89C265.35 200.43 265.35 198.89 265.35 197.37C265.35 196.26 265.07 195.37 263.77 195.3C263.498 195.273 263.224 195.306 262.967 195.396C262.709 195.486 262.474 195.632 262.279 195.822C262.084 196.013 261.932 196.244 261.836 196.499C261.739 196.755 261.7 197.028 261.72 197.3C261.64 198.82 261.72 200.36 261.72 201.84C261.532 201.974 261.31 202.052 261.08 202.065C260.85 202.077 260.621 202.024 260.42 201.91V194.43C261.08 194.11 261.52 194.19 261.72 194.92C262.48 194.337 263.424 194.046 264.38 194.1C264.677 194.091 264.973 194.142 265.25 194.25C265.527 194.358 265.78 194.521 265.992 194.73C266.204 194.938 266.372 195.187 266.485 195.462C266.598 195.738 266.654 196.033 266.65 196.33C266.7 198.2 266.64 200 266.64 201.89Z" fill="#0BA454"/>
<path d="M342.95 198.2C342.95 200.64 341.54 202.2 339.33 202.2C337.12 202.2 335.6 200.62 335.6 198.13C335.6 195.64 337.05 194.07 339.33 194.05C341.61 194.03 342.95 195.66 342.95 198.2ZM341.57 197.98C341.553 197.571 341.493 197.166 341.39 196.77C341.268 196.33 341.007 195.941 340.647 195.66C340.287 195.379 339.846 195.221 339.39 195.21C338.933 195.163 338.474 195.274 338.09 195.526C337.706 195.777 337.419 196.153 337.28 196.59C336.89 197.614 336.89 198.746 337.28 199.77C337.422 200.156 337.679 200.489 338.018 200.724C338.356 200.958 338.758 201.083 339.17 201.08C339.602 201.105 340.032 201 340.403 200.776C340.774 200.553 341.069 200.224 341.25 199.83C341.476 199.24 341.584 198.612 341.57 197.98Z" fill="#0BA454"/>
<path d="M262.92 142.31L259.61 140.08C259.91 137.993 260.866 136.056 262.34 134.55C263.062 134.721 263.72 135.093 264.237 135.625C264.754 136.156 265.109 136.824 265.26 137.55C265.52 139.35 264.2 140.81 262.92 142.31Z" fill="#808286"/>
<path d="M121.38 145.6L118.12 143.41C118.02 142.04 119 139.78 120.41 137.98C121.138 138.047 121.83 138.322 122.405 138.772C122.98 139.223 123.412 139.83 123.65 140.52C124.03 142.61 122.52 143.96 121.38 145.6Z" fill="#808286"/>
<path d="M314.76 196.37C315.54 197.31 316.67 197.27 317.62 197.59C318.77 197.98 319.74 198.44 319.71 199.85C319.64 200.462 319.358 201.03 318.912 201.454C318.465 201.878 317.884 202.132 317.27 202.17C315.21 202.52 313.84 201.73 313.27 199.87C313.42 199.72 313.608 199.615 313.815 199.565C314.022 199.516 314.238 199.524 314.44 199.59C314.515 199.86 314.644 200.112 314.819 200.331C314.993 200.55 315.21 200.731 315.457 200.864C315.703 200.998 315.973 201.08 316.252 201.107C316.531 201.134 316.812 201.104 317.08 201.02C317.82 200.87 318.29 200.49 318.25 199.72C317.88 198.98 317.25 198.96 316.62 198.72C315.92 198.543 315.232 198.322 314.56 198.06C314.317 197.961 314.098 197.813 313.915 197.626C313.732 197.438 313.59 197.216 313.496 196.971C313.402 196.727 313.36 196.466 313.371 196.204C313.382 195.943 313.446 195.686 313.56 195.45C313.917 194.867 314.456 194.417 315.093 194.168C315.73 193.919 316.431 193.884 317.09 194.07C318.19 194.27 319.15 194.74 319.24 196.15L318.33 196.35C316.84 194.78 315.46 194.75 314.76 196.37Z" fill="#0BA454"/>
<path d="M161.8 123.31C160.55 122.608 159.38 121.773 158.31 120.82C158.765 118.937 159.621 117.173 160.82 115.65C162.14 115.77 163.97 117.15 164.08 118.37C164.26 120.36 162.93 121.74 161.8 123.31Z" fill="#808286"/>
<path d="M277.02 194.39C277.228 194.283 277.456 194.223 277.689 194.213C277.922 194.202 278.154 194.242 278.37 194.33V198.86C278.37 199.93 278.48 200.86 279.85 200.99C281.22 201.12 281.85 200.34 281.93 198.9C282.01 197.46 281.93 195.9 281.93 194.51C282.36 194.09 282.76 194.22 283.23 194.32V201.9C282.64 202.25 282.23 202.01 281.89 201.4C281.363 201.737 280.795 202.005 280.2 202.2C279.838 202.301 279.458 202.317 279.089 202.249C278.719 202.18 278.371 202.028 278.069 201.804C277.767 201.581 277.52 201.291 277.347 200.958C277.174 200.624 277.079 200.256 277.07 199.88C276.95 198.05 277.02 196.25 277.02 194.39Z" fill="#0BA454"/>
<path d="M136.34 170.7C135.172 170.058 134.064 169.312 133.03 168.47C133.301 166.391 134.242 164.457 135.71 162.96C136.422 163.152 137.07 163.532 137.586 164.059C138.101 164.587 138.465 165.243 138.64 165.96C138.91 167.82 137.54 169.2 136.34 170.7Z" fill="#808286"/>
<path d="M115.35 201.84C115.157 201.946 114.942 202.008 114.723 202.02C114.503 202.032 114.283 201.994 114.08 201.91C113.859 199.402 113.859 196.879 114.08 194.37C114.66 194.01 115.08 194.31 115.48 194.83C116.146 194.287 116.992 194.016 117.85 194.07C118.167 194.051 118.485 194.097 118.783 194.208C119.082 194.318 119.354 194.489 119.583 194.71C119.811 194.931 119.991 195.197 120.111 195.492C120.231 195.786 120.289 196.102 120.28 196.42C120.33 198.22 120.28 200.03 120.28 201.81C119.89 202.17 119.5 201.99 119.09 201.96C119.035 201.828 118.995 201.691 118.97 201.55C118.97 200.11 118.97 198.67 118.97 197.22C118.97 196.14 118.65 195.35 117.42 195.27C117.15 195.244 116.879 195.277 116.624 195.369C116.369 195.46 116.138 195.606 115.947 195.798C115.756 195.989 115.609 196.22 115.518 196.475C115.427 196.729 115.393 197.001 115.42 197.27C115.31 198.78 115.35 200.31 115.35 201.84Z" fill="#0BA454"/>
<path d="M142.32 194.49C142.504 194.345 142.725 194.253 142.957 194.225C143.19 194.197 143.426 194.233 143.64 194.33V201.92C143.08 202.07 142.46 202.4 142.42 201.23C141.983 201.637 141.455 201.932 140.88 202.09C138.88 202.55 137.54 201.65 137.44 199.62C137.36 197.91 137.44 196.2 137.44 194.55C137.8 194.08 138.19 194.17 138.61 194.33C138.61 194.43 138.75 194.55 138.75 194.67C138.75 196.16 138.75 197.67 138.75 199.14C138.75 200.14 139.04 200.94 140.22 200.98C141.4 201.02 142.22 200.53 142.29 199.33C142.39 197.72 142.32 196.09 142.32 194.49Z" fill="#0BA454"/>
<path d="M193.5 117.13C194.177 117.282 194.793 117.635 195.266 118.144C195.739 118.653 196.047 119.293 196.15 119.98C196.4 121.98 195.27 123.46 194.03 124.92C192.64 124.36 191.83 123.22 190.77 122.51C191.188 120.507 192.13 118.65 193.5 117.13Z" fill="#808286"/>
<path d="M239.05 196.42C238.71 196.7 238.3 196.59 237.89 196.67C237.38 195.6 236.63 194.94 235.42 195.29C234.918 195.445 234.486 195.771 234.199 196.211C233.913 196.652 233.789 197.178 233.85 197.7C233.85 198.02 233.85 198.34 233.85 198.65C233.91 199.83 234.3 200.81 235.62 201.02C235.88 201.085 236.152 201.092 236.415 201.04C236.679 200.988 236.928 200.878 237.144 200.718C237.36 200.559 237.538 200.353 237.665 200.117C237.792 199.88 237.866 199.618 237.88 199.35C238.277 199.208 238.712 199.208 239.11 199.35C238.74 201.27 237.81 202.1 236.02 202.17C235.268 202.229 234.52 202.02 233.907 201.581C233.294 201.142 232.856 200.501 232.67 199.77C232.344 198.68 232.344 197.52 232.67 196.43C232.843 195.719 233.258 195.091 233.844 194.654C234.429 194.216 235.149 193.995 235.88 194.03C237.61 194.03 238.45 194.66 239.05 196.42Z" fill="#0BA454"/>
<path d="M198.98 196.41C198.819 196.542 198.627 196.631 198.421 196.666C198.216 196.701 198.005 196.682 197.81 196.61C197.742 196.35 197.62 196.108 197.452 195.899C197.284 195.689 197.073 195.518 196.834 195.397C196.595 195.275 196.333 195.205 196.065 195.192C195.797 195.178 195.529 195.222 195.28 195.32C194.703 195.593 194.238 196.056 193.961 196.631C193.684 197.206 193.613 197.858 193.76 198.48C193.89 199.62 194.1 200.78 195.53 201.01C195.792 201.079 196.066 201.091 196.333 201.042C196.6 200.994 196.853 200.887 197.073 200.729C197.294 200.571 197.477 200.367 197.61 200.13C197.742 199.893 197.821 199.63 197.84 199.36C198.034 199.273 198.247 199.238 198.459 199.258C198.671 199.277 198.874 199.35 199.05 199.47C199.016 199.862 198.905 200.244 198.723 200.594C198.541 200.944 198.292 201.254 197.99 201.508C197.688 201.762 197.34 201.953 196.964 202.072C196.588 202.19 196.192 202.234 195.8 202.2C193.8 202.12 192.62 200.89 192.43 198.55C192.24 196.21 193.22 194.55 195.11 194.14C196.77 193.77 198.67 194.45 198.98 196.41Z" fill="#0BA454"/>
<path d="M150.8 201.92C150.589 202.004 150.362 202.043 150.135 202.034C149.908 202.026 149.685 201.97 149.48 201.87V195.62C149.21 195.05 148.02 195.57 148.3 194.46C148.44 194.07 149.02 194.39 149.39 193.91C149.24 191.65 150.32 190.65 152.73 191.27C152.794 191.437 152.811 191.618 152.781 191.794C152.751 191.969 152.675 192.134 152.56 192.27C152.06 192.48 151.38 192.27 150.79 193C150.71 193.271 150.71 193.56 150.79 193.83C151.08 194.54 152.49 193.83 152.22 195.07C151.88 195.54 151.22 195.13 150.78 195.67L150.8 201.92Z" fill="#0BA454"/>
<path d="M220.09 174.08L217.58 171.2C218.254 169.65 219.089 168.175 220.07 166.8C220.679 166.961 221.229 167.294 221.654 167.758C222.08 168.222 222.363 168.799 222.47 169.42C222.74 170.83 221.8 172.7 220.09 174.08Z" fill="#808286"/>
<path d="M292.2 195.08C291.95 194.14 292.71 194.28 293.08 194.08V192.6C293.207 192.365 293.393 192.166 293.618 192.023C293.844 191.879 294.103 191.796 294.37 191.78C294.43 192.55 294.49 193.29 294.54 193.96C294.89 194.48 296.08 193.96 295.68 195.21L294.57 195.44V200.49C294.94 201.02 295.38 200.82 295.75 201.09L295.88 201.91C295.646 202.062 295.38 202.159 295.103 202.194C294.826 202.228 294.544 202.2 294.28 202.11C293.943 202.041 293.642 201.854 293.431 201.583C293.22 201.312 293.113 200.974 293.13 200.63C293.13 198.96 293.13 197.28 293.13 195.77C292.92 195.2 292.38 195.4 292.2 195.08Z" fill="#0BA454"/>
<path d="M258.2 190.65V201.84C257.984 201.962 257.743 202.035 257.496 202.052C257.248 202.07 257 202.031 256.77 201.94V190.68C257.2 190.39 257.66 190.51 258.2 190.65Z" fill="#0BA454"/>
<path d="M147.05 201.88C146.866 201.975 146.664 202.031 146.457 202.043C146.25 202.055 146.043 202.023 145.85 201.95V191.46C146.029 191.345 146.237 191.284 146.45 191.284C146.662 191.284 146.871 191.345 147.05 191.46V201.88Z" fill="#0BA454"/>
<path d="M249.94 201.88C249.746 201.989 249.527 202.046 249.305 202.046C249.083 202.046 248.864 201.989 248.67 201.88V191.51C248.85 191.373 249.067 191.293 249.293 191.279C249.519 191.264 249.744 191.317 249.94 191.43V201.88Z" fill="#0BA454"/>
<path d="M91.1096 201.8C90.9249 201.919 90.7158 201.995 90.4978 202.023C90.2797 202.05 90.0582 202.029 89.8496 201.96V194.35C90.4496 194.04 90.8496 194.25 91.1996 194.84C91.3462 194.635 91.5323 194.462 91.7471 194.33C91.9619 194.199 92.2009 194.112 92.4499 194.074C92.699 194.037 92.953 194.05 93.1968 194.113C93.4407 194.176 93.6695 194.287 93.8696 194.44C94.0696 194.89 93.6296 195.14 93.5796 195.5C91.7196 195.42 91.2696 195.8 91.1496 197.59C91.1496 198.31 91.1496 199.03 91.1496 199.75L91.1096 201.8Z" fill="#0BA454"/>
<path d="M298.25 201.91C298.066 202.012 297.86 202.066 297.65 202.066C297.44 202.066 297.233 202.012 297.05 201.91V194.49C297.7 194.1 298.16 194.19 298.41 194.99C299.21 194.12 300.09 193.74 301.16 194.53C301.3 194.92 301.04 195.2 300.89 195.53C298.74 195.59 298.49 195.84 298.42 198.06C298.42 199.28 298.42 200.5 298.35 201.72C298.326 201.788 298.292 201.852 298.25 201.91Z" fill="#0BA454"/>
<path d="M176.99 200.69L177.99 200.99C178.157 201.262 178.215 201.588 178.15 201.9C176.15 202.41 175.48 201.9 175.45 199.96C175.45 198.52 175.45 197.08 175.45 195.63C175.39 195.08 174.45 195.47 174.55 194.86C174.42 194.11 175.26 194.41 175.46 193.86V192.57C175.771 192.094 176.237 191.741 176.78 191.57V193.79C177.13 194.48 178.35 193.79 178.09 194.96C177.81 195.38 177.32 195.11 176.98 195.31C176.64 195.51 176.73 199.2 176.99 200.69Z" fill="#0BA454"/>
<path d="M179.5 194.38C180.26 194.13 180.63 194.31 180.74 195.06C180.866 194.826 181.041 194.621 181.253 194.46C181.464 194.299 181.708 194.184 181.967 194.125C182.227 194.065 182.496 194.061 182.757 194.114C183.018 194.167 183.264 194.275 183.48 194.43C183.66 194.87 183.33 195.14 183.25 195.43C181.19 195.49 180.88 195.78 180.75 197.88C180.75 198.55 180.75 199.23 180.75 199.88V201.73C180.578 201.867 180.369 201.949 180.15 201.967C179.931 201.985 179.712 201.937 179.52 201.83L179.5 194.38Z" fill="#0BA454"/>
<path d="M103.61 194.47V201.8C103.431 201.942 103.213 202.027 102.985 202.045C102.757 202.063 102.529 202.012 102.33 201.9V194.38C102.526 194.258 102.755 194.2 102.985 194.217C103.215 194.233 103.434 194.321 103.61 194.47Z" fill="#0BA454"/>
<path d="M303.38 201.89C303.183 201.976 302.97 202.021 302.755 202.021C302.54 202.021 302.327 201.976 302.13 201.89V194.35C302.51 194.02 302.92 194.2 303.38 194.35V201.89Z" fill="#0BA454"/>
<path d="M230.79 194.45V201.78C230.39 202.14 230 202.03 229.56 201.94V194.41C229.74 194.279 229.959 194.211 230.181 194.218C230.404 194.226 230.618 194.307 230.79 194.45Z" fill="#0BA454"/>
<path d="M68.0796 106.2C67.9996 106.05 67.9196 105.9 67.8496 105.75C68.9677 103.865 70.2708 102.096 71.7396 100.47C70.8983 102.139 69.9182 103.735 68.8096 105.24C68.6096 105.58 68.6696 106.2 68.0796 106.2Z" fill="#808286"/>
<path d="M229.55 191.39C229.917 191.25 230.323 191.25 230.69 191.39C230.786 191.588 230.841 191.804 230.852 192.024C230.862 192.244 230.827 192.464 230.75 192.67C230.562 192.759 230.357 192.805 230.15 192.805C229.942 192.805 229.737 192.759 229.55 192.67V191.39Z" fill="#0BA454"/>
<path d="M103.59 191.39V192.56C103.24 192.93 102.83 192.71 102.47 192.8C102.259 192.385 102.216 191.906 102.35 191.46C102.738 191.274 103.183 191.249 103.59 191.39Z" fill="#0BA454"/>
<path d="M302.1 192.6V191.52C302.252 191.386 302.442 191.302 302.644 191.279C302.846 191.256 303.05 191.295 303.23 191.39C303.351 191.579 303.424 191.794 303.442 192.018C303.459 192.241 303.421 192.465 303.33 192.67C303.136 192.766 302.921 192.81 302.705 192.797C302.49 192.785 302.281 192.717 302.1 192.6Z" fill="#0BA454"/>
<path d="M352.92 104.73C352.92 104.67 352.98 104.62 352.92 104.68V104.73Z" fill="#808286"/>
<path d="M156.76 136.75C157.85 135.09 158.65 133.68 159.65 132.42C160.83 130.92 162.39 130.89 164.28 132.22C163.502 133.541 162.406 134.646 161.093 135.437C159.781 136.228 158.291 136.679 156.76 136.75Z" fill="#FDFDFD"/>
<path d="M280.59 147.95C278.7 145.86 276.48 147.89 274.37 151.59C277.53 151.48 280.14 149.92 280.59 147.95Z" fill="#FDFDFD"/>
<path d="M248.2 224.88L248.2 219.33C249.896 219.154 251.608 219.205 253.29 219.48C253.926 219.6 254.49 219.962 254.863 220.49C255.237 221.018 255.39 221.671 255.29 222.31C255.284 222.95 255.037 223.564 254.597 224.03C254.158 224.495 253.559 224.777 252.92 224.82C251.357 225.053 249.769 225.073 248.2 224.88Z" fill="#FDFDFD"/>
<path d="M297.25 224.96V219.2C298.97 219.28 300.68 219.25 302.36 219.46C302.965 219.591 303.498 219.944 303.854 220.45C304.21 220.956 304.362 221.577 304.28 222.19C304.297 222.807 304.09 223.409 303.696 223.883C303.302 224.358 302.749 224.673 302.14 224.77C300.521 225.002 298.882 225.065 297.25 224.96Z" fill="#FDFDFD"/>
<path d="M159.36 195.88V191.94C160.75 191.94 162.1 191.84 163.42 191.94C163.858 191.983 164.26 192.198 164.539 192.537C164.819 192.876 164.952 193.312 164.91 193.75C164.91 194.86 164.46 195.69 163.39 195.81C162.05 195.913 160.704 195.937 159.36 195.88Z" fill="#FDFDFD"/>
<path d="M73.8398 195.95V191.95C75.1416 191.79 76.4581 191.79 77.7598 191.95C78.2187 191.973 78.6506 192.174 78.9641 192.51C79.2776 192.846 79.4482 193.29 79.4398 193.75C79.5128 194.201 79.412 194.664 79.1579 195.044C78.9037 195.425 78.515 195.694 78.0698 195.8C76.6748 196.057 75.2496 196.108 73.8398 195.95Z" fill="#FDFDFD"/>
<path d="M273.76 198.11C273.69 198.63 273.65 199.11 273.54 199.6C273.457 200.004 273.241 200.368 272.928 200.636C272.615 200.904 272.222 201.06 271.81 201.08C271.425 201.125 271.036 201.042 270.703 200.845C270.369 200.649 270.108 200.348 269.96 199.99C269.688 199.418 269.543 198.794 269.534 198.161C269.526 197.527 269.654 196.899 269.91 196.32C270.052 195.959 270.309 195.654 270.642 195.455C270.975 195.256 271.365 195.173 271.75 195.22C272.137 195.238 272.508 195.374 272.814 195.61C273.12 195.846 273.346 196.171 273.46 196.54C273.605 197.054 273.705 197.579 273.76 198.11Z" fill="#FDFDFD"/>
<path d="M106.82 200.65C106.47 199 106.53 198.91 110.44 198.26C110.61 198.676 110.634 199.138 110.508 199.569C110.383 200.001 110.116 200.378 109.75 200.64C109.331 200.963 108.817 201.139 108.287 201.141C107.757 201.143 107.242 200.971 106.82 200.65Z" fill="#FDFDFD"/>
<path d="M245.2 198.26C245.322 198.629 245.344 199.023 245.264 199.403C245.184 199.784 245.005 200.136 244.745 200.424C244.485 200.713 244.153 200.927 243.784 201.046C243.414 201.165 243.019 201.183 242.64 201.1C241.95 201.01 241.4 200.72 241.39 199.94C241.379 199.642 241.486 199.352 241.689 199.133C241.891 198.913 242.172 198.783 242.47 198.77C243.31 198.59 244.2 198.44 245.2 198.26Z" fill="#FDFDFD"/>
<path d="M86.5297 197.31L82.6602 197.31C82.6219 197.033 82.6463 196.751 82.7314 196.485C82.8166 196.219 82.9605 195.975 83.1524 195.771C83.3442 195.568 83.5793 195.41 83.8403 195.31C84.1012 195.209 84.3814 195.168 84.6602 195.19C85.8302 195.2 86.5197 195.92 86.5297 197.31Z" fill="#FDFDFD"/>
<path d="M306.48 197.35C306.467 197.069 306.51 196.788 306.609 196.525C306.707 196.261 306.859 196.021 307.053 195.817C307.248 195.614 307.482 195.453 307.741 195.343C308 195.234 308.279 195.178 308.56 195.18C309.68 195.08 310.38 195.82 310.56 197.25C309.205 197.398 307.841 197.431 306.48 197.35Z" fill="#FDFDFD"/>
<path d="M213.86 197.32H209.86C209.822 197.063 209.838 196.8 209.908 196.549C209.978 196.298 210.1 196.065 210.266 195.864C210.432 195.663 210.638 195.499 210.871 195.383C211.105 195.267 211.36 195.202 211.62 195.19C212.87 195.09 213.61 195.76 213.86 197.32Z" fill="#FDFDFD"/>
<path d="M172.1 197.31C170.769 197.432 169.43 197.432 168.1 197.31C168.21 195.87 168.85 195.22 170.1 195.21C171.35 195.2 171.96 195.89 172.1 197.31Z" fill="#FDFDFD"/>
<path d="M189.88 198.2C189.88 200.06 188.88 201.2 187.35 201.01C186.06 200.87 185.35 199.82 185.35 198.13C185.35 196.44 186.09 195.34 187.35 195.13C188.85 195.02 189.91 196.26 189.88 198.2Z" fill="#FDFDFD"/>
<path d="M341.57 197.98C341.594 198.61 341.496 199.238 341.28 199.83C341.099 200.223 340.804 200.553 340.433 200.776C340.062 200.999 339.632 201.105 339.2 201.08C338.788 201.082 338.386 200.958 338.048 200.724C337.71 200.489 337.452 200.156 337.31 199.77C336.92 198.746 336.92 197.614 337.31 196.59C337.45 196.153 337.736 195.777 338.12 195.525C338.504 195.274 338.963 195.163 339.42 195.21C339.877 195.221 340.317 195.379 340.677 195.66C341.038 195.94 341.298 196.33 341.42 196.77C341.513 197.167 341.563 197.572 341.57 197.98Z" fill="#FDFDFD"/>
<path d="M0.650391 320.74C0.677943 318.496 1.23289 316.29 2.27039 314.3C3.4201 312.054 5.11521 310.132 7.20039 308.71C7.27343 308.658 7.35908 308.625 7.44865 308.617C7.53823 308.608 7.62854 308.623 7.7104 308.66C7.8504 308.81 7.8204 309.06 7.6004 309.4C4.93373 313.66 3.6004 317.48 3.6004 320.86C3.6004 324.24 4.93373 328.04 7.6004 332.26C7.8204 332.6 7.8504 332.85 7.7104 333.01C7.62768 333.046 7.53688 333.06 7.44729 333.049C7.35769 333.039 7.2725 333.005 7.20039 332.95C5.11887 331.528 3.4273 329.606 2.2804 327.36C1.24289 325.37 0.687946 323.164 0.660393 320.92L0.650391 320.74Z" fill="black"/>
<path d="M14.0601 329.95C13.3182 331.408 12.7862 332.963 12.4801 334.57C11.9611 337.019 11.5904 339.497 11.3701 341.99C11.0901 344.91 10.9001 347.64 10.8101 350.2C10.7201 352.76 10.6501 354.96 10.5701 356.84C10.4901 358.72 10.3401 359.48 10.0901 359.16C9.8938 358.865 9.80224 358.513 9.83009 358.16C9.83009 356.45 9.83009 354.01 9.88009 350.82C9.93009 347.63 10.0801 344.26 10.3101 340.67C10.4675 337.458 11.0217 334.277 11.9601 331.2C12.2201 330.47 12.5201 329.75 12.8401 329.02C13.4797 327.662 14.2715 326.38 15.2001 325.2C15.7002 324.59 16.2379 324.013 16.8101 323.47C17.342 322.953 17.9138 322.478 18.5201 322.05C18.9657 321.747 19.4263 321.467 19.9001 321.21C20.1795 321.067 20.45 320.906 20.7101 320.73L22.2001 317.7C22.3979 317.209 22.6979 316.766 23.0801 316.4C23.1501 316.33 23.4301 316.33 23.9101 316.4L25.3201 316.69C25.6401 316.76 26.1401 316.91 26.8301 317.14C27.1173 317.208 27.3729 317.372 27.5546 317.605C27.7364 317.837 27.8335 318.125 27.8301 318.42C27.8389 318.794 27.7952 319.168 27.7001 319.53C27.5552 319.976 27.3711 320.407 27.1501 320.82C26.8905 321.356 26.5535 321.852 26.1501 322.29C25.8196 322.676 25.4357 323.013 25.0101 323.29C24.536 323.547 24.0367 323.755 23.5201 323.91C22.824 324.138 22.1164 324.328 21.4001 324.48C20.5601 324.678 19.7399 324.952 18.9501 325.3C17.9672 325.752 17.0704 326.371 16.3001 327.13C15.4234 327.959 14.6691 328.909 14.0601 329.95Z" fill="black"/>
<path d="M32.7399 321.86C32.7121 322.47 32.6419 323.078 32.5299 323.68C32.442 324.155 32.2976 324.618 32.0999 325.06C31.9562 325.4 31.7208 325.694 31.4199 325.91C31.2751 326.008 31.1119 326.076 30.9402 326.111C30.7684 326.145 30.5915 326.145 30.4199 326.11C30.4199 324.73 30.5799 322.8 30.8499 320.33C31.1199 317.86 31.5399 315.11 32.0899 312.11C32.3799 311.25 32.9499 309.71 33.8199 307.51C33.9099 307.3 33.9999 307.21 34.0999 307.25C34.1999 307.29 34.2499 307.37 34.2499 307.51C34.1899 308.59 33.9666 310.656 33.5799 313.71C33.1899 316.76 32.9499 318.86 32.8599 319.99C32.7699 321.12 32.7399 321.75 32.7399 321.86Z" fill="black"/>
<path d="M34.9201 331.89C34.2156 331.931 33.5134 331.778 32.8895 331.448C32.2655 331.119 31.7436 330.625 31.3801 330.02C30.7138 328.828 30.3918 327.474 30.4501 326.11C30.5101 325.74 30.5901 325.32 30.7101 324.86C30.8193 324.404 30.9699 323.959 31.1601 323.53C31.329 323.135 31.551 322.765 31.8201 322.43C32.0512 322.139 32.3764 321.937 32.7399 321.86C32.6924 322.918 32.8557 323.975 33.2201 324.97C33.4663 325.438 33.8808 325.796 34.3801 325.97C34.9171 326.18 35.498 326.252 36.0701 326.18C36.3201 325.52 36.5501 324.88 36.7901 324.26L37.6901 322.14C38.0698 321.289 38.5718 320.497 39.1801 319.79C39.5185 319.38 39.9409 319.048 40.4187 318.815C40.8965 318.582 41.4187 318.454 41.9501 318.44C42.3676 318.425 42.7825 318.511 43.1601 318.69C43.3222 318.775 43.4642 318.895 43.5763 319.039C43.6884 319.184 43.7682 319.352 43.8101 319.53C43.8373 319.694 43.8231 319.862 43.769 320.019C43.7149 320.176 43.6225 320.318 43.5001 320.43C43.3559 320.609 43.1546 320.732 42.9301 320.78L42.2801 320.62C41.9222 320.518 41.5522 320.464 41.1801 320.46C40.793 320.466 40.4123 320.559 40.0661 320.732C39.7199 320.905 39.4171 321.154 39.1801 321.46C38.6949 321.928 38.3874 322.55 38.3101 323.22C38.3376 323.687 38.5413 324.127 38.8801 324.45C39.0787 324.662 39.3212 324.828 39.5906 324.937C39.86 325.046 40.1499 325.095 40.4401 325.08C41.2801 325.08 42.1101 324.42 42.9401 323.22C43.1201 322.93 43.3801 322.49 43.7301 321.88C44.0801 321.27 44.3501 321.02 44.5701 321.11C44.7901 321.2 44.7601 321.51 44.5701 322.11C44.2849 322.89 43.9509 323.652 43.5701 324.39C42.9462 325.656 42.2169 326.867 41.3901 328.01C39.4601 330.6 37.3201 331.89 34.9201 331.89Z" fill="black"/>
<path d="M64.6504 328.2C64.6504 327.89 64.0104 327.45 62.7304 326.86C61.4504 326.27 60.7904 325.52 60.7904 324.65C60.8064 323.929 60.945 323.215 61.2004 322.54C61.4724 321.764 61.8069 321.012 62.2004 320.29C62.2741 320.165 62.3918 320.073 62.5304 320.03C62.6738 319.975 62.8267 319.948 62.9804 319.95C63.1245 319.946 63.2678 319.974 63.4004 320.03C63.4554 320.051 63.5038 320.086 63.5408 320.132C63.5777 320.177 63.6017 320.232 63.6104 320.29C63.6104 320.544 63.8104 320.794 64.2104 321.04C64.6104 321.29 65.0104 321.56 65.4204 321.85C65.7959 322.101 66.0993 322.446 66.3004 322.85C66.4996 323.429 66.5878 324.039 66.5604 324.65C66.5556 325.864 66.4046 327.073 66.1104 328.25C65.6858 329.772 65.1235 331.251 64.4304 332.67C63.266 335.253 61.4668 337.5 59.2004 339.2C58.4509 339.68 57.649 340.072 56.8104 340.37C55.9258 340.659 55.0008 340.804 54.0704 340.8C53.0477 340.85 52.0289 340.642 51.1079 340.194C50.187 339.747 49.3934 339.075 48.8004 338.24C47.6946 336.592 47.1445 334.633 47.2304 332.65C47.2763 331.295 47.4913 329.952 47.8704 328.65C48.2318 327.258 48.6759 325.889 49.2004 324.55C49.7004 323.36 50.1204 322.36 50.4804 321.55L50.9304 320.66L51.6704 319.1C51.8904 318.71 52.0804 318.36 52.2504 318.04C52.4204 317.72 52.5504 317.44 52.6604 317.19C52.9204 316.71 53.1304 316.48 53.2704 316.5C53.4104 316.52 53.5204 316.74 53.4304 317.11C53.3586 317.503 53.2411 317.885 53.0804 318.25C51.8337 321.164 50.9671 323.197 50.4804 324.35C49.7797 325.894 49.3566 327.549 49.2304 329.24C49.2304 331.434 49.8971 332.997 51.2304 333.93C52.3913 334.635 53.7336 334.982 55.0904 334.93C57.6767 335.013 60.2068 334.165 62.2204 332.54C63.8404 331.167 64.6504 329.72 64.6504 328.2Z" fill="black"/>
<path d="M62.2002 320.31C62.5074 319.796 62.8412 319.299 63.2002 318.82C63.6542 318.179 64.1485 317.568 64.6802 316.99C65.1872 316.424 65.7283 315.89 66.3002 315.39C66.7235 315.083 67.1094 314.727 67.4502 314.33C67.5967 314.185 67.6886 313.995 67.7102 313.79C67.7102 313.67 67.5502 313.53 67.2302 313.37C66.9102 313.19 66.7902 312.97 66.8602 312.7L67.9202 310.31C68.2302 309.76 68.5002 309.23 68.7502 308.74C69.0002 308.25 69.4902 307.93 69.8402 307.96C70.8153 308.09 71.7504 308.431 72.5802 308.96C72.8489 309.111 73.079 309.323 73.2525 309.578C73.426 309.833 73.5381 310.124 73.5802 310.43C73.5349 311.273 73.2073 312.076 72.6502 312.71C72.1521 313.455 71.488 314.075 70.7102 314.52C70.1202 314.84 69.6302 315.12 69.2202 315.36L68.2202 315.93C67.47 316.381 66.7486 316.879 66.0602 317.42C65.5292 317.888 65.0313 318.393 64.5702 318.93C64.1869 319.321 63.8725 319.774 63.6402 320.27C63.4203 320.389 63.1752 320.455 62.925 320.462C62.6748 320.469 62.4264 320.417 62.2002 320.31Z" fill="black"/>
<path d="M78.0104 321.86C77.9795 322.471 77.906 323.079 77.7904 323.68C77.7102 324.156 77.569 324.619 77.3704 325.06C77.2245 325.399 76.9896 325.693 76.6904 325.91C76.3961 326.104 76.0371 326.176 75.6904 326.11C75.6904 324.73 75.8504 322.8 76.1304 320.33C76.4104 317.86 76.8204 315.11 77.3704 312.11C77.6504 311.25 78.2304 309.71 79.1004 307.51C79.1904 307.3 79.2804 307.21 79.3804 307.25C79.4804 307.29 79.5204 307.37 79.5204 307.51C79.4738 308.59 79.2538 310.656 78.8604 313.71C78.4704 316.76 78.2304 318.86 78.1404 319.99C78.0504 321.12 78.0104 321.75 78.0104 321.86Z" fill="black"/>
<path d="M90.33 327.31C89.7032 328.682 89.1523 330.088 88.68 331.52C88.36 332.52 88.11 332.98 87.93 332.98C87.75 332.98 87.64 332.85 87.64 332.61C87.73 332.16 87.81 331.7 87.88 331.22L88.15 329.22C88.2082 328.539 88.0318 327.858 87.65 327.29C87.4671 327.085 87.2393 326.925 86.9842 326.823C86.7292 326.72 86.4539 326.678 86.18 326.7C85.48 326.7 84.77 327.23 84.02 328.31C83.501 329.086 82.9367 329.831 82.33 330.54C81.9613 330.95 81.5207 331.289 81.03 331.54C80.4977 331.81 79.9068 331.944 79.31 331.93C78.7784 331.929 78.2566 331.787 77.798 331.518C77.3394 331.249 76.9605 330.864 76.7 330.4C75.9735 329.106 75.6269 327.633 75.7 326.15C75.7971 325.561 75.9239 324.977 76.08 324.4C76.2087 323.928 76.3828 323.469 76.6 323.03C76.7557 322.702 76.973 322.407 77.24 322.16C77.3406 322.068 77.4591 321.997 77.5881 321.953C77.7171 321.908 77.8539 321.89 77.99 321.9C77.9337 323.056 78.1967 324.204 78.75 325.22C79.0227 325.642 79.4052 325.981 79.8562 326.201C80.3073 326.421 80.81 326.514 81.31 326.47C82.0343 326.505 82.7542 326.339 83.39 325.99C83.8569 325.632 84.2919 325.234 84.69 324.8C85.05 324.42 85.41 324.06 85.78 323.71C86.2169 323.33 86.7711 323.111 87.35 323.09C87.7188 323.094 88.0822 323.179 88.4142 323.34C88.7461 323.501 89.0384 323.733 89.27 324.02C89.5341 324.329 89.7654 324.664 89.96 325.02C90.07 325.26 90.15 325.46 90.22 325.62C90.2762 325.774 90.323 325.931 90.36 326.09C90.3911 326.296 90.3911 326.505 90.36 326.71C90.39 326.93 90.36 327.13 90.33 327.31Z" fill="black"/>
<path d="M90.33 327.31C90.0541 327.429 89.7596 327.501 89.4597 327.52C89.1836 327.539 88.9093 327.465 88.6797 327.31C89.5353 325.643 90.5787 324.08 91.7897 322.65C92.9997 321.23 93.9197 320.65 94.5597 320.84C95.3397 321.254 95.8997 321.234 96.2397 320.78C96.6231 320.219 96.901 319.592 97.0597 318.93C97.0597 318.79 97.1697 318.71 97.2897 318.7C97.3484 318.697 97.4069 318.709 97.4595 318.736C97.5121 318.762 97.5569 318.802 97.5897 318.85C98.1997 319.5 98.7297 319.13 99.1897 317.73C99.3497 317.29 99.5197 317.07 99.6897 317.07C99.8597 317.07 99.8397 317.14 99.8497 317.3C99.8698 317.443 99.8698 317.588 99.8497 317.73C99.7415 318.66 99.4455 319.558 98.9797 320.37C98.6674 321.064 98.1325 321.635 97.4597 321.99C97.0045 322.098 96.5866 322.326 96.2497 322.65L95.5297 323.41C95.3673 323.609 95.1345 323.738 94.8797 323.77C94.5478 323.814 94.2116 323.814 93.8797 323.77C93.7028 323.748 93.5232 323.761 93.3515 323.81C93.1798 323.858 93.0194 323.939 92.8797 324.05C92.3511 324.47 91.8833 324.962 91.4897 325.51C91.0282 326.059 90.6387 326.663 90.33 327.31Z" fill="black"/>
<path d="M108.26 320.92C108.233 323.164 107.678 325.37 106.64 327.36C105.493 329.606 103.802 331.528 101.72 332.95C101.648 333.005 101.563 333.039 101.473 333.049C101.384 333.06 101.293 333.046 101.21 333.01C101.07 332.85 101.1 332.6 101.32 332.26C103.94 328.04 105.273 324.24 105.32 320.86C105.367 317.48 104.033 313.66 101.32 309.4C101.1 309.06 101.07 308.81 101.21 308.66C101.292 308.623 101.382 308.608 101.472 308.617C101.561 308.625 101.647 308.658 101.72 308.71C103.802 310.133 105.493 312.055 106.64 314.3C107.678 316.29 108.233 318.496 108.26 320.74V320.92Z" fill="black"/>
<path d="M116.2 322.2C115.261 324.077 114.587 326.076 114.2 328.14C113.534 331.285 113.06 334.467 112.78 337.67C112.41 341.41 112.18 344.93 112.06 348.21C111.94 351.49 111.85 354.34 111.75 356.74C111.65 359.14 111.46 360.14 111.14 359.74C110.873 359.35 110.753 358.879 110.8 358.41C110.8 356.22 110.8 353.08 110.87 348.99C110.94 344.9 111.12 340.55 111.41 335.99C111.618 331.885 112.33 327.821 113.53 323.89C113.87 322.95 114.25 322.02 114.66 321.08C115.473 319.345 116.479 317.708 117.66 316.2C118.302 315.413 118.994 314.669 119.73 313.97C120.411 313.302 121.147 312.694 121.93 312.15C122.497 311.758 123.084 311.397 123.69 311.07C124.038 310.887 124.372 310.68 124.69 310.45L126.64 306.52C126.891 305.887 127.276 305.317 127.77 304.85C127.86 304.76 128.21 304.76 128.83 304.85L130.64 305.22C131.05 305.31 131.7 305.51 132.64 305.8C133.018 305.878 133.358 306.086 133.6 306.387C133.843 306.688 133.973 307.063 133.97 307.45C133.982 307.925 133.925 308.4 133.8 308.86C133.615 309.432 133.38 309.987 133.1 310.52C132.762 311.213 132.324 311.853 131.8 312.42C131.374 312.906 130.879 313.327 130.33 313.67C129.723 314.003 129.083 314.271 128.42 314.47C127.61 314.73 126.7 314.98 125.7 315.2C124.626 315.438 123.575 315.773 122.56 316.2C121.294 316.781 120.14 317.58 119.15 318.56C117.999 319.627 117.005 320.852 116.2 322.2Z" fill="black"/>
<path d="M140.2 311.83C140.16 312.615 140.067 313.397 139.92 314.17C139.814 314.78 139.633 315.375 139.38 315.94C139.195 316.382 138.891 316.763 138.5 317.04C138.12 317.283 137.664 317.376 137.22 317.3C137.22 315.52 137.43 313.04 137.79 309.86C138.15 306.68 138.67 303.17 139.38 299.31C139.74 298.197 140.48 296.227 141.6 293.4C141.71 293.13 141.83 293.01 141.96 293.06C142.024 293.088 142.078 293.136 142.112 293.198C142.147 293.259 142.16 293.33 142.15 293.4C142.08 294.79 141.79 297.45 141.29 301.4C140.79 305.35 140.48 308.01 140.37 309.47C140.26 310.93 140.2 311.69 140.2 311.83Z" fill="black"/>
<path d="M140.2 313.02C140.111 314.219 140.436 315.411 141.12 316.4C141.332 316.744 141.625 317.03 141.974 317.234C142.323 317.438 142.716 317.553 143.12 317.57C143.26 317.57 143.49 316.98 143.8 315.86C143.961 315.146 144.252 314.468 144.66 313.86C145.21 313.65 145.66 313.86 146.03 314.57C146.314 315.13 146.509 315.73 146.61 316.35C146.601 318.095 146.226 319.819 145.51 321.41C144.49 323.597 143.113 324.69 141.38 324.69C140.899 324.694 140.423 324.592 139.986 324.392C139.548 324.191 139.161 323.897 138.85 323.53C138.176 322.816 137.713 321.93 137.51 320.97C137.311 319.75 137.221 318.515 137.24 317.28C137.243 316.603 137.34 315.93 137.53 315.28C137.704 314.637 137.952 314.016 138.27 313.43C138.525 312.942 138.863 312.502 139.27 312.13C139.383 311.996 139.529 311.894 139.694 311.834C139.859 311.774 140.037 311.759 140.21 311.79L140.2 313.02Z" fill="black"/>
<path d="M154.48 305.47C154.48 307.11 154.4 308.59 154.38 309.91C154.373 311.029 154.303 312.148 154.17 313.26C154.031 315.039 153.655 316.791 153.05 318.47C152.696 319.512 152.24 320.517 151.69 321.47C151.45 321.852 151.182 322.216 150.89 322.56C150.64 322.79 150.45 322.86 150.31 322.78C150.244 322.742 150.194 322.682 150.168 322.61C150.143 322.539 150.143 322.461 150.17 322.39C150.17 322.39 150.31 321.66 150.58 320.32C150.851 319.045 151.025 317.751 151.1 316.45C151.16 315.19 151.18 313.45 151.1 311.13C151.036 309.378 151.093 307.624 151.27 305.88C151.371 305.14 151.524 304.408 151.73 303.69C151.95 302.94 152.2 302.2 152.47 301.47C152.74 300.74 153.03 300.05 153.34 299.4C153.65 298.75 153.93 298.18 154.18 297.68C154.38 297.36 154.56 297.23 154.72 297.3C154.795 297.327 154.858 297.38 154.896 297.45C154.935 297.52 154.947 297.602 154.93 297.68C154.854 298.103 154.804 298.53 154.78 298.96C154.72 299.63 154.67 300.38 154.62 301.22C154.57 302.06 154.54 302.86 154.5 303.66C154.46 304.46 154.48 305.08 154.48 305.47Z" fill="black"/>
<path d="M163.44 313.76C163.309 314.896 163.074 316.017 162.74 317.11C162.293 318.73 161.71 320.497 160.99 322.41C160.465 323.902 159.83 325.353 159.09 326.75C158.648 327.609 158.039 328.37 157.3 328.99C156.345 329.642 155.282 330.116 154.16 330.39C153.014 330.744 151.848 331.031 150.67 331.25C150.121 331.358 149.567 331.431 149.01 331.47C148.78 331.47 148.65 331.36 148.6 331.2C148.587 331.088 148.599 330.974 148.635 330.867C148.672 330.76 148.731 330.662 148.81 330.58C149.338 329.959 149.98 329.443 150.7 329.06C151.7 328.43 152.9 327.65 154.24 326.7C155.304 326.008 156.27 325.173 157.11 324.22C157.862 323.23 158.509 322.164 159.04 321.04C159.76 319.634 160.41 318.21 160.99 316.77C161.57 315.34 161.99 314.36 162.24 313.83C162.49 313.3 162.76 313.06 163.06 313.08C163.36 313.1 163.44 313.35 163.44 313.76Z" fill="black"/>
<path d="M170.31 329.11C169.949 329.578 169.536 330.004 169.08 330.38C168.645 330.684 168.179 330.942 167.69 331.15C167.192 331.353 166.677 331.51 166.15 331.62L164.5 332.02L162.24 332.56C161.698 332.723 161.124 332.747 160.57 332.63C160.57 332.31 160.94 331.91 161.69 331.44L163.78 330.12L165.9 328.8C167.388 327.815 168.734 326.631 169.9 325.28C170.488 324.578 171.025 323.836 171.51 323.06C171.76 322.7 172.13 322.06 172.64 321.18L174.1 318.18C174.387 317.584 174.722 317.012 175.1 316.47C175.39 316.04 175.67 315.83 175.92 315.86C176.17 315.89 176.21 316.2 176.12 316.54C175.874 317.294 175.714 317.784 175.64 318.01C175.358 318.828 175.177 319.678 175.1 320.54C174.96 320.95 174.87 321.21 174.82 321.33C174.28 322.564 173.71 323.724 173.11 324.81C172.265 326.299 171.33 327.735 170.31 329.11Z" fill="black"/>
<path d="M187.02 324.36C186.516 324.247 185.994 324.247 185.49 324.36C184.3 324.75 183.08 326.03 181.83 328.22C180.58 330.41 178.98 331.5 177.31 331.5C176.533 331.466 175.777 331.239 175.11 330.839C174.443 330.439 173.886 329.879 173.49 329.21C172.58 327.66 172.117 325.888 172.15 324.09C172.483 322.908 172.918 321.757 173.45 320.65C173.801 319.833 174.386 319.137 175.13 318.65C175.13 320.93 175.687 322.597 176.8 323.65C177.603 324.383 178.653 324.787 179.74 324.78C180.499 324.782 181.247 324.595 181.916 324.235C182.585 323.875 183.153 323.355 183.57 322.72C184.129 321.932 184.776 321.21 185.5 320.57C185.918 320.187 186.454 319.958 187.02 319.92C187.131 320.245 187.211 320.58 187.26 320.92C187.369 321.406 187.426 321.902 187.43 322.4C187.442 322.781 187.398 323.162 187.3 323.53C187.221 323.811 187.127 324.088 187.02 324.36ZM179.57 304.6C179.808 303.449 180.241 302.346 180.85 301.34C181.71 299.66 182.26 298.82 182.51 298.82C183.01 298.62 183.74 299 184.7 299.97C185.399 300.559 185.918 301.331 186.2 302.2C186.058 303.331 185.647 304.412 185 305.35C184.2 306.72 183.62 307.4 183.26 307.4C183.12 307.33 182.65 307.03 181.84 306.49C181.03 305.95 180.43 305.55 180.04 305.28C179.915 305.211 179.807 305.113 179.725 304.995C179.644 304.877 179.591 304.742 179.57 304.6Z" fill="black"/>
<path d="M187.02 319.88C188.25 320.41 189.02 320.43 189.45 319.95C189.5 319.9 189.94 319.24 190.78 317.95C191.01 317.58 191.17 317.4 191.26 317.4C191.292 317.395 191.326 317.398 191.357 317.408C191.389 317.418 191.417 317.436 191.441 317.459C191.464 317.482 191.482 317.511 191.492 317.542C191.502 317.574 191.505 317.607 191.5 317.64C191.506 317.944 191.465 318.248 191.38 318.54C191.28 318.97 191.07 319.66 190.77 320.63C190.455 321.609 189.967 322.523 189.33 323.33C189.084 323.703 188.734 323.996 188.324 324.174C187.913 324.352 187.46 324.406 187.02 324.33C186.74 323.599 186.601 322.822 186.61 322.04C186.642 321.304 186.78 320.577 187.02 319.88ZM187.26 354.88C187.26 355.13 187.43 355.37 187.78 355.6C188.13 355.83 188.78 356.27 189.57 356.81C190.36 357.35 190.85 357.65 190.99 357.71C191.35 357.71 191.93 357.03 192.73 355.66C193.379 354.726 193.791 353.649 193.93 352.52C193.648 351.63 193.113 350.841 192.39 350.25C191.39 349.25 190.7 348.9 190.2 349.1C189.95 349.1 189.4 349.94 188.54 351.61C187.927 352.632 187.494 353.752 187.26 354.92V354.88Z" fill="black"/>
<path d="M213.37 331.31C213.37 330.93 212.55 330.36 210.91 329.61C209.27 328.86 208.41 327.88 208.41 326.77C208.436 325.84 208.615 324.921 208.94 324.05C209.281 323.066 209.702 322.113 210.2 321.2C210.298 321.038 210.451 320.917 210.63 320.86C210.816 320.793 211.013 320.759 211.21 320.76C211.392 320.756 211.573 320.79 211.74 320.86C211.813 320.885 211.876 320.931 211.924 320.991C211.972 321.051 212.002 321.123 212.01 321.2C212.01 321.52 212.27 321.84 212.78 322.2C213.29 322.56 213.78 322.87 214.34 323.2C214.816 323.528 215.203 323.967 215.47 324.48C215.729 325.228 215.845 326.018 215.81 326.81C215.801 328.364 215.606 329.911 215.23 331.42C214.681 333.373 213.958 335.274 213.07 337.1C211.551 340.405 209.223 343.273 206.3 345.44C205.34 346.059 204.309 346.563 203.23 346.94C202.095 347.313 200.906 347.499 199.71 347.49C198.397 347.556 197.088 347.29 195.905 346.717C194.722 346.144 193.702 345.281 192.94 344.21C191.529 342.089 190.828 339.574 190.94 337.03C191.008 335.306 191.284 333.597 191.76 331.94C192.231 330.152 192.801 328.393 193.47 326.67C194.11 325.15 194.66 323.86 195.11 322.81C195.25 322.56 195.44 322.18 195.7 321.66L196.65 319.66C196.93 319.16 197.17 318.71 197.39 318.3C197.61 317.89 197.78 317.52 197.92 317.2C198.26 316.59 198.52 316.29 198.7 316.31C198.88 316.33 199.02 316.62 198.91 317.1C198.811 317.604 198.66 318.096 198.46 318.57C196.847 322.31 195.73 324.92 195.11 326.4C194.215 328.387 193.674 330.516 193.51 332.69C193.51 335.49 194.37 337.5 196.11 338.69C197.597 339.597 199.321 340.039 201.06 339.96C204.385 340.069 207.637 338.975 210.22 336.88C212.32 335.093 213.37 333.236 213.37 331.31Z" fill="black"/>
<path d="M210.2 321.2C210.959 319.909 211.843 318.697 212.84 317.58C213.684 316.757 214.572 315.979 215.5 315.25C216.141 314.779 216.809 314.344 217.5 313.95C217.851 313.787 218.139 313.513 218.32 313.17C218.68 312.69 219.05 312.17 219.41 311.56C219.747 311.539 220.081 311.492 220.41 311.42C220.58 311.4 220.751 311.4 220.92 311.42C221.037 311.457 221.151 311.504 221.26 311.56C221.288 311.916 221.449 312.248 221.71 312.49C221.94 312.729 222.157 312.979 222.36 313.24C222.81 313.74 223.17 314.11 223.42 314.36C223.603 314.621 223.697 314.933 223.69 315.25C223.626 316.103 223.236 316.898 222.6 317.47C222.382 317.797 222.099 318.074 221.769 318.286C221.438 318.497 221.068 318.639 220.68 318.7C220.414 318.665 220.158 318.573 219.93 318.43C219.287 318.044 218.559 317.821 217.81 317.78C217.249 317.781 216.69 317.838 216.14 317.95C215.601 318.134 215.073 318.351 214.56 318.6C213.942 318.963 213.372 319.399 212.86 319.9C212.464 320.245 212.176 320.696 212.03 321.2C211.74 321.308 211.438 321.382 211.13 321.42C210.804 321.454 210.477 321.376 210.2 321.2Z" fill="black"/>
<path d="M220.72 342.34C221.65 340.59 222.22 339.71 222.43 339.71C222.82 339.55 223.38 339.83 224.12 340.55C224.741 341.13 225.307 341.766 225.81 342.45C226.27 341.7 226.81 340.85 227.33 339.92C227.85 338.99 228.26 338.52 228.44 338.52C229.24 338.664 229.956 339.107 230.44 339.76C231.114 340.376 231.552 341.207 231.68 342.11C231.579 343.237 231.139 344.307 230.42 345.18C229.6 346.34 229 346.92 228.61 346.92C228.22 346.92 227.9 346.59 227.24 345.92C226.701 345.366 226.119 344.854 225.5 344.39C224.273 346.87 223.293 348.11 222.56 348.11C222.258 348.048 221.982 347.894 221.77 347.67C221.45 347.39 220.96 346.98 220.29 346.44C219.62 345.9 219.29 345.55 219.29 345.44C219.628 344.348 220.109 343.306 220.72 342.34ZM229.98 308.58C230.18 307.972 230.295 307.34 230.32 306.7C230.255 306.014 230.094 305.341 229.84 304.7C228.635 304.718 227.44 304.928 226.3 305.32C225.084 305.847 223.966 306.574 222.99 307.47C221.639 308.668 220.449 310.036 219.45 311.54C219.552 311.629 219.671 311.696 219.8 311.737C219.929 311.778 220.065 311.793 220.2 311.78C220.57 311.815 220.941 311.731 221.26 311.54C222.88 309.794 224.487 308.884 226.08 308.81C227.346 308.679 228.624 308.805 229.84 309.18C229.93 308.993 229.978 308.788 229.98 308.58Z" fill="black"/>
<path d="M231.04 304.89C231.242 304.946 231.454 304.953 231.659 304.911C231.864 304.87 232.056 304.78 232.22 304.65C232.947 303.994 233.544 303.207 233.98 302.33C234.37 302.56 234.62 302.69 234.73 302.74C235.44 302.99 236.09 302.16 236.73 300.24C236.961 300.242 237.188 300.289 237.4 300.38C237.562 300.438 237.739 300.436 237.899 300.373C238.059 300.311 238.191 300.192 238.27 300.04C238.594 299.581 238.853 299.08 239.04 298.55C239.3 297.88 239.46 297.55 239.53 297.55C239.6 297.55 239.79 297.62 239.84 297.82C239.894 298.057 239.894 298.303 239.84 298.54C239.624 299.592 239.288 300.615 238.84 301.59C238.537 302.399 238.043 303.123 237.4 303.7C236.86 304.18 236.34 304.7 235.87 305.14C235.492 305.57 235.024 305.911 234.5 306.14L233.16 306.65C231.5 308.41 230.41 309.26 229.88 309.21C229.783 308.942 229.703 308.668 229.64 308.39C229.546 308.003 229.485 307.608 229.46 307.21C229.41 306.782 229.41 306.349 229.46 305.92C229.511 305.502 229.643 305.097 229.85 304.73L231.04 304.89ZM233.6 277.82C233.963 276.73 234.453 275.686 235.06 274.71C236.06 272.91 236.62 272.01 236.85 272.01C237.511 272.169 238.113 272.516 238.58 273.01C239.234 273.52 239.776 274.16 240.17 274.89C240.67 274.07 241.17 273.27 241.6 272.5C242.26 271.4 242.67 270.86 242.83 270.86C243.642 270.989 244.382 271.4 244.92 272.02C245.635 272.621 246.093 273.473 246.2 274.4C246.089 275.544 245.664 276.634 244.97 277.55C244.13 278.75 243.52 279.36 243.16 279.36C242.8 279.36 242.44 279.07 241.89 278.5C241.318 277.864 240.689 277.281 240.01 276.76C238.763 279.307 237.783 280.584 237.07 280.59C236.403 280.256 235.786 279.829 235.24 279.32C234.147 278.48 233.6 277.98 233.6 277.82ZM236.71 269.34C237.042 268.301 237.474 267.296 238 266.34C238.85 264.56 239.4 263.66 239.65 263.66C240.481 263.757 241.241 264.173 241.77 264.82C242.456 265.48 242.873 266.371 242.94 267.32C242.825 268.426 242.455 269.491 241.86 270.43C241.14 271.764 240.61 272.43 240.27 272.43C240.06 272.43 239.61 272.12 238.9 271.49C238.19 270.86 237.65 270.41 237.28 270.14C236.91 269.87 236.71 269.57 236.71 269.34Z" fill="black"/>
<path d="M245.48 326.43C244.918 328.134 244.171 329.771 243.25 331.31C242.837 332.05 242.295 332.71 241.65 333.26C241.095 333.588 240.509 333.86 239.9 334.07C239.13 334.35 237.95 334.75 236.37 335.26C235.454 335.599 234.51 335.856 233.55 336.03C233.37 336.03 233.27 336.03 233.27 335.9C233.09 335.65 234.04 334.82 236.11 333.43C238.18 332.04 239.52 331.13 240.11 330.7C240.815 330.163 241.435 329.522 241.95 328.8C242.585 327.955 243.057 326.999 243.34 325.98C242.995 325.937 242.645 326.004 242.34 326.17C242.033 326.338 241.689 326.428 241.34 326.43C240.556 326.426 239.802 326.134 239.22 325.61C238.964 325.4 238.765 325.131 238.639 324.826C238.514 324.52 238.466 324.188 238.5 323.86C238.586 323.48 238.716 323.03 238.89 322.51C239.204 321.677 239.564 320.863 239.97 320.07C240.431 319.095 240.987 318.167 241.63 317.3C241.804 317.003 242.044 316.75 242.332 316.561C242.62 316.372 242.948 316.252 243.29 316.21C243.746 316.207 244.197 316.314 244.604 316.521C245.011 316.728 245.363 317.029 245.63 317.4C246.264 318.22 246.596 319.234 246.57 320.27C246.567 320.835 246.533 321.399 246.47 321.96C246.4 322.52 246.32 322.96 246.24 323.37C246.16 323.78 246.05 324.22 245.9 324.8C245.75 325.38 245.66 325.93 245.48 326.43Z" fill="black"/>
<path d="M264.69 316.55C264.921 316.436 265.167 316.355 265.42 316.31L266.2 316.2C266.607 316.737 266.897 317.354 267.05 318.01C267.185 318.603 267.232 319.213 267.19 319.82C267.142 320.409 267.021 320.991 266.83 321.55C266.657 322.071 266.447 322.579 266.2 323.07C265.739 323.019 265.275 322.996 264.81 323C264.133 323.018 263.461 323.123 262.81 323.31C261.869 323.603 260.953 323.971 260.07 324.41C258.438 325.297 257.003 326.504 255.85 327.96C254.73 329.39 253.37 331.22 251.79 333.45C250.345 335.499 248.726 337.42 246.95 339.19C245.681 340.477 244.321 341.67 242.88 342.76C241.81 343.54 240.82 344.19 239.88 344.76C238.921 345.307 237.925 345.788 236.9 346.2L236.55 346.34C236.39 346.41 236.21 346.47 236.01 346.54C235.858 346.628 235.686 346.674 235.51 346.674C235.335 346.674 235.162 346.628 235.01 346.54C234.94 346.43 235.01 346.21 235.32 345.89C235.933 345.292 236.584 344.734 237.27 344.22C238.357 343.507 239.594 342.6 240.98 341.5C242.484 340.27 243.898 338.933 245.21 337.5C246.746 335.823 248.126 334.009 249.33 332.08C249.95 331.26 250.53 330.41 251.08 329.52C253.08 326.58 254.42 324.76 255.01 324.05C256.448 322.192 258.13 320.537 260.01 319.13C261.452 318.071 263.025 317.203 264.69 316.55Z" fill="black"/>
<path d="M258.43 293.41C258.764 292.328 259.234 291.293 259.83 290.33C260.77 288.57 261.34 287.7 261.54 287.7C261.93 287.54 262.54 287.82 263.23 288.53C263.851 289.109 264.417 289.746 264.92 290.43C265.38 289.68 265.92 288.84 266.45 287.9C266.98 286.96 267.37 286.5 267.56 286.5C268.361 286.647 269.076 287.094 269.56 287.75C270.235 288.362 270.677 289.189 270.81 290.09C270.707 291.221 270.265 292.295 269.54 293.17C268.72 294.33 268.12 294.91 267.73 294.91C267.34 294.91 267.03 294.58 266.37 293.91C265.825 293.355 265.24 292.84 264.62 292.37C263.39 294.85 262.41 296.1 261.68 296.1C261.379 296.037 261.105 295.879 260.9 295.65L259.41 294.42C258.77 293.88 258.43 293.54 258.43 293.41ZM268.27 323.01C267.879 323.096 267.48 323.136 267.08 323.13C266.771 323.126 266.463 323.096 266.16 323.04C265.88 323.04 265.65 322.72 265.47 322.15C265.272 321.5 265.158 320.828 265.13 320.15C265.082 319.392 265.139 318.632 265.3 317.89C265.428 317.251 265.741 316.663 266.2 316.2C267.67 315.903 269.174 315.812 270.67 315.93C272.22 316.04 273.14 315.93 273.41 315.62C273.607 315.802 273.762 316.026 273.862 316.275C273.962 316.524 274.006 316.792 273.99 317.06C273.989 317.678 273.785 318.279 273.41 318.77C272.761 319.639 272.063 320.47 271.32 321.26C270.589 322.221 269.513 322.859 268.32 323.04L268.27 323.01Z" fill="black"/>
<path d="M261.12 328.96C262.04 327.14 262.61 326.24 262.81 326.24C263.462 326.388 264.05 326.738 264.49 327.24C265.114 327.749 265.625 328.382 265.99 329.1C266.47 328.3 266.93 327.52 267.36 326.74C268 325.62 268.36 325.07 268.56 325.07C269.324 325.193 270.016 325.596 270.5 326.2C271.182 326.837 271.609 327.701 271.7 328.63C271.594 329.766 271.179 330.852 270.5 331.77C269.73 332.98 269.16 333.58 268.8 333.58C268.44 333.58 268.12 333.3 267.6 332.73C267.046 332.098 266.441 331.512 265.79 330.98C264.6 333.54 263.67 334.81 262.98 334.81C262.338 334.483 261.751 334.058 261.24 333.55C260.24 332.7 259.74 332.2 259.74 332.04C260.084 330.965 260.547 329.931 261.12 328.96ZM264.32 335.76C265.2 334.17 265.75 333.39 265.96 333.42C266.327 333.502 266.673 333.655 266.981 333.872C267.288 334.088 267.549 334.362 267.75 334.68C268.331 335.301 268.656 336.119 268.66 336.97C268.52 338.025 268.133 339.032 267.53 339.91C266.8 341.03 266.3 341.58 266.03 341.58C265.76 341.58 265.63 341.39 265.38 341.07C265.13 340.75 264.68 340.37 264.32 339.98C263.96 339.59 263.72 339.47 263.41 339.19C263.29 339.108 263.187 339.004 263.108 338.882C263.029 338.76 262.975 338.623 262.95 338.48C263.316 337.53 263.775 336.619 264.32 335.76ZM276.68 313.2C276.878 312.753 277.016 312.282 277.09 311.8C277.14 311.48 277.09 311.29 276.99 311.22C276.89 311.15 276.53 311.22 276.27 311.5C276.27 311.5 276.12 311.7 275.93 311.97L273.68 315.2C273.601 315.344 273.496 315.473 273.37 315.58C273 316.597 273 317.712 273.37 318.73C273.76 318.2 274.13 317.68 274.5 317.15C274.87 316.62 275.2 316.08 275.5 315.51C275.94 314.764 276.334 313.993 276.68 313.2Z" fill="black"/>
<path d="M317.2 323.79C316.529 323.782 315.859 323.842 315.2 323.97C314.58 324.13 314.012 324.447 313.55 324.89C312.912 325.45 312.35 326.093 311.88 326.8C311.61 327.21 311.33 327.62 311.04 328.02C310.75 328.42 310.48 328.82 310.2 329.23C309.573 330.087 308.801 330.828 307.92 331.42C305.079 333.325 301.87 334.613 298.5 335.2C294.06 336.124 289.534 336.57 285 336.53C283.249 336.535 281.5 336.445 279.76 336.26C278.312 336.219 276.896 335.831 275.63 335.13C274.19 334.236 273.47 332.606 273.47 330.24C273.474 328.682 273.601 327.127 273.85 325.59C274.08 323.88 274.34 323.03 274.64 323.03C274.94 323.03 274.99 323.55 275.15 324.6C275.204 325.529 275.599 326.405 276.26 327.06C277.132 327.77 278.16 328.264 279.26 328.5C281.268 328.921 283.318 329.115 285.37 329.08C287.55 329.08 290.01 329.08 292.73 328.96C295.45 328.84 297.67 328.66 299.36 328.43C301.475 328.104 303.561 327.612 305.6 326.96C306.979 326.567 308.318 326.044 309.6 325.4C310.532 324.94 311.386 324.336 312.13 323.61C312.19 323.56 312.5 323.17 313.05 322.43C313.453 321.858 313.898 321.317 314.38 320.81C315.1 320.044 316.046 319.529 317.08 319.34C317.455 319.579 317.751 319.925 317.929 320.332C318.107 320.74 318.159 321.192 318.08 321.63C317.94 322.403 317.64 323.139 317.2 323.79ZM285.88 316.2C286.218 315.119 286.688 314.085 287.28 313.12C288.22 311.37 288.79 310.49 289 310.49C289.38 310.33 289.95 310.61 290.69 311.33C291.308 311.912 291.874 312.548 292.38 313.23L293.9 310.7C294.46 309.76 294.83 309.3 295.01 309.3C295.812 309.439 296.528 309.884 297.01 310.54C297.688 311.153 298.13 311.985 298.26 312.89C298.158 314.017 297.719 315.087 297 315.96C296.18 317.12 295.57 317.71 295.19 317.71C294.81 317.71 294.48 317.37 293.82 316.71C293.278 316.155 292.696 315.64 292.08 315.17C290.84 317.663 289.86 318.906 289.14 318.9C288.837 318.84 288.56 318.686 288.35 318.46C288.03 318.18 287.54 317.77 286.86 317.23C286.18 316.69 285.88 316.31 285.88 316.2Z" fill="black"/>
<path d="M317.2 323.79C316.977 323.063 316.85 322.31 316.82 321.55C316.806 320.79 316.935 320.033 317.2 319.32C317.797 319.321 318.391 319.412 318.96 319.59C319.54 319.77 319.96 319.4 320.35 318.46C320.597 317.742 320.755 316.997 320.82 316.24C320.943 315.379 321.013 314.51 321.03 313.64L320.96 304.14L322.57 299.14L323.76 295.55C323.92 295.19 324.08 295.14 324.24 295.42C324.311 295.721 324.335 296.032 324.31 296.34C324.31 297.34 324.31 298.34 324.17 299.45C324.03 300.56 324.04 301.81 323.97 302.84C323.79 308.76 323.62 312.37 323.46 313.67C323.316 314.92 323.062 316.155 322.7 317.36C322.377 318.409 321.931 319.416 321.37 320.36C320.842 321.235 320.247 322.067 319.59 322.85C319.404 323.151 319.155 323.408 318.859 323.603C318.564 323.798 318.23 323.926 317.88 323.98C317.643 323.968 317.41 323.903 317.2 323.79ZM327.32 290.02C329.399 287.987 331.589 286.071 333.88 284.28C336.594 282.16 339.594 279.767 342.88 277.1C344.88 275.414 346.93 273.614 349.03 271.7C350.15 270.65 352.03 268.88 354.57 266.4C358.077 263 359.83 261.267 359.83 261.2C359.821 261.422 359.777 261.641 359.7 261.85C359.362 262.876 358.913 263.862 358.36 264.79C357.79 265.802 357.152 266.774 356.45 267.7C355.857 268.5 355.057 269.47 354.05 270.61C352.87 271.88 352.18 272.61 351.97 272.83C351.38 273.42 350.19 274.51 348.42 276.11C347.78 276.68 346.98 277.37 346.04 278.19C345.1 279.01 344.04 279.95 342.74 281C341.03 282.46 339.45 283.74 337.99 284.86C336.05 286.387 334.184 287.81 332.39 289.13L327.56 292.89C327.22 293.19 326.887 293.47 326.56 293.73L325.56 294.46C324.92 294.99 324.56 295.17 324.47 295.01C324.824 294.048 325.245 293.112 325.73 292.21C326.143 291.412 326.665 290.675 327.28 290.02H327.32Z" fill="black"/>
<path d="M334.77 316.55C335.001 316.436 335.247 316.355 335.5 316.31L336.2 316.2C336.602 316.74 336.892 317.356 337.05 318.01C337.185 318.603 337.232 319.213 337.19 319.82C337.142 320.409 337.021 320.991 336.83 321.55C336.648 322.068 336.438 322.576 336.2 323.07C335.739 323.019 335.274 322.996 334.81 323C334.133 323.018 333.461 323.123 332.81 323.31C331.868 323.602 330.952 323.97 330.07 324.41C328.438 325.297 327.003 326.504 325.85 327.96C324.72 329.39 323.37 331.22 321.78 333.45C320.341 335.501 318.725 337.422 316.95 339.19C315.679 340.474 314.319 341.667 312.88 342.76C311.81 343.54 310.82 344.19 309.88 344.76C308.935 345.311 307.953 345.795 306.94 346.21L306.6 346.35C306.44 346.42 306.26 346.48 306.06 346.55C305.908 346.638 305.736 346.684 305.56 346.684C305.385 346.684 305.212 346.638 305.06 346.55C304.99 346.44 305.06 346.22 305.36 345.9C305.978 345.307 306.629 344.749 307.31 344.23C308.41 343.52 309.64 342.61 311.02 341.51C312.528 340.28 313.945 338.944 315.26 337.51C316.796 335.833 318.175 334.019 319.38 332.09C320.003 331.267 320.584 330.413 321.12 329.53C323.12 326.59 324.43 324.767 325.05 324.06C326.488 322.203 328.17 320.548 330.05 319.14C331.503 318.074 333.09 317.203 334.77 316.55Z" fill="black"/>
<path d="M350.11 309.78C349.11 312.2 348.26 313.43 347.48 313.47C346.984 313.49 346.491 313.564 346.01 313.69C345.542 313.828 345.1 314.041 344.7 314.32C344.116 314.799 343.61 315.366 343.2 316C342.037 318.13 340.699 320.161 339.2 322.07C338.822 322.449 338.363 322.736 337.856 322.909C337.35 323.083 336.811 323.138 336.28 323.07C335.59 320.832 335.59 318.438 336.28 316.2C337.164 316.038 338.062 315.964 338.96 315.98H340.27C340.75 315.98 341.27 315.64 341.74 314.98C341.95 314.71 342.3 314.22 342.81 313.51C343.103 313.103 343.614 312.453 344.34 311.56C344.895 310.791 345.69 310.228 346.6 309.96C347.253 309.788 347.925 309.694 348.6 309.68C348.92 309.2 349.21 308.74 349.48 308.3C349.632 307.981 349.858 307.703 350.14 307.49C350.42 307.36 350.58 307.49 350.62 308.01C350.537 308.622 350.365 309.218 350.11 309.78ZM339.82 294.57C340.208 293.44 340.739 292.365 341.4 291.37C342.4 289.54 343.08 288.62 343.31 288.62C344.02 288.766 344.673 289.113 345.19 289.62C345.897 290.128 346.481 290.788 346.9 291.55L348.44 289.09C349.14 287.97 349.59 287.41 349.77 287.41C350.654 287.61 351.461 288.062 352.093 288.712C352.725 289.362 353.155 290.181 353.33 291.07C353.2 292.237 352.735 293.342 351.99 294.25C351.11 295.5 350.46 296.13 350.05 296.13C349.64 296.13 349.27 295.83 348.68 295.24C348.073 294.583 347.403 293.987 346.68 293.46C345.347 296.06 344.297 297.36 343.53 297.36C342.804 297.034 342.13 296.603 341.53 296.08C340.39 295.2 339.82 294.73 339.82 294.57ZM343.18 285.92C343.528 284.837 343.991 283.795 344.56 282.81C345.48 280.98 346.08 280.08 346.35 280.08C347.229 280.17 348.039 280.596 348.61 281.27C349.34 281.921 349.794 282.826 349.88 283.8C349.756 284.94 349.355 286.032 348.71 286.98C347.94 288.32 347.37 288.98 347 288.98C346.437 288.769 345.933 288.426 345.53 287.98C344.976 287.491 344.395 287.034 343.79 286.61C343.38 286.4 343.2 286.2 343.2 285.92H343.18Z" fill="black"/>
</g>
<defs>
<linearGradient id="paint0_linear_16780_72713" x1="118.47" y1="242.4" x2="235.83" y2="242.4" gradientUnits="userSpaceOnUse">
<stop stop-color="#000846"/>
<stop offset="1" stop-color="#0078A6"/>
</linearGradient>
<linearGradient id="paint1_linear_16780_72713" x1="99.8701" y1="260" x2="162.58" y2="224.8" gradientUnits="userSpaceOnUse">
<stop stop-color="#000846"/>
<stop offset="1" stop-color="#0078A6"/>
</linearGradient>
<clipPath id="clip0_16780_72713">
<rect width="360" height="360" fill="white"/>
</clipPath>
</defs>
</svg>
